<svg xmlns="http://www.w3.org/2000/svg" xmlns:xlink="http://www.w3.org/1999/xlink" width="500" zoomAndPan="magnify" viewBox="0 0 375 374.999991" height="500" preserveAspectRatio="xMidYMid meet" version="1.0"><defs><filter x="0%" y="0%" width="100%" height="100%" id="007c9d976c"><feColorMatrix values="0 0 0 0 1 0 0 0 0 1 0 0 0 0 1 0 0 0 1 0" color-interpolation-filters="sRGB"/></filter><mask id="9c4fcc4e06"><g filter="url(#007c9d976c)"><rect x="-37.5" width="450" fill="#000000" y="-37.499999" height="449.999989" fill-opacity="0.08"/></g></mask><clipPath id="a96d5be21f"><path d="M 71.398438 373.558594 L 73 373.558594 L 73 374.996094 L 71.398438 374.996094 Z M 71.398438 373.558594 " clip-rule="nonzero"/></clipPath><clipPath id="9418b72a06"><path d="M 107.445312 358.652344 L 135.800781 358.652344 L 135.800781 374.996094 L 107.445312 374.996094 Z M 107.445312 358.652344 " clip-rule="nonzero"/></clipPath><clipPath id="e7c83f7e09"><path d="M 72.117188 343.027344 L 127.148438 343.027344 L 127.148438 374.996094 L 72.117188 374.996094 Z M 72.117188 343.027344 " clip-rule="nonzero"/></clipPath><clipPath id="97e6f85dc4"><path d="M 152.863281 343.027344 L 163.195312 343.027344 L 163.195312 374.996094 L 152.863281 374.996094 Z M 152.863281 343.027344 " clip-rule="nonzero"/></clipPath><clipPath id="3b660620b0"><path d="M 197.558594 312.257812 L 199.242188 312.257812 L 199.242188 374.996094 L 197.558594 374.996094 Z M 197.558594 312.257812 " clip-rule="nonzero"/></clipPath><clipPath id="1880b18e5e"><path d="M 215 312.257812 L 254 312.257812 L 254 374.996094 L 215 374.996094 Z M 215 312.257812 " clip-rule="nonzero"/></clipPath><clipPath id="cf8789a93a"><path d="M 171 312.257812 L 181.9375 312.257812 L 181.9375 374.996094 L 171 374.996094 Z M 171 312.257812 " clip-rule="nonzero"/></clipPath><clipPath id="162ceeb4f7"><path d="M 17.328125 312.257812 L 72.359375 312.257812 L 72.359375 374.996094 L 17.328125 374.996094 Z M 17.328125 312.257812 " clip-rule="nonzero"/></clipPath><clipPath id="136308aa2f"><path d="M 0.0273438 312.257812 L 37.753906 312.257812 L 37.753906 374.996094 L 0.0273438 374.996094 Z M 0.0273438 312.257812 " clip-rule="nonzero"/></clipPath><clipPath id="60b222c31c"><path d="M 341 0 L 375 0 L 375 63 L 341 63 Z M 341 0 " clip-rule="nonzero"/></clipPath><clipPath id="aa94744fa2"><path d="M 359 62 L 375 62 L 375 79 L 359 79 Z M 359 62 " clip-rule="nonzero"/></clipPath><clipPath id="f1b2c01a2c"><path d="M 324 62 L 375 62 L 375 95 L 324 95 Z M 324 62 " clip-rule="nonzero"/></clipPath><clipPath id="043cb1fae0"><path d="M 369 93 L 375 93 L 375 125 L 369 125 Z M 369 93 " clip-rule="nonzero"/></clipPath><clipPath id="b3c3855d8a"><path d="M 369 124 L 375 124 L 375 142 L 369 142 Z M 369 124 " clip-rule="nonzero"/></clipPath><clipPath id="0099019cf8"><path d="M 369 0 L 375 0 L 375 17 L 369 17 Z M 369 0 " clip-rule="nonzero"/></clipPath><clipPath id="a9661e4c50"><path d="M 341 124 L 375 124 L 375 188 L 341 188 Z M 341 124 " clip-rule="nonzero"/></clipPath><clipPath id="7887f4cbe4"><path d="M 359 187 L 375 187 L 375 204 L 359 204 Z M 359 187 " clip-rule="nonzero"/></clipPath><clipPath id="82f671e54b"><path d="M 324 187 L 375 187 L 375 220 L 324 220 Z M 324 187 " clip-rule="nonzero"/></clipPath><clipPath id="25a5e0aee1"><path d="M 369 218 L 375 218 L 375 250 L 369 250 Z M 369 218 " clip-rule="nonzero"/></clipPath><clipPath id="4a45fc68df"><path d="M 369 249 L 375 249 L 375 267 L 369 267 Z M 369 249 " clip-rule="nonzero"/></clipPath><clipPath id="8d0cb14de1"><path d="M 341 249 L 375 249 L 375 313 L 341 313 Z M 341 249 " clip-rule="nonzero"/></clipPath><clipPath id="875933dcec"><path d="M 323.71875 358.652344 L 352.074219 358.652344 L 352.074219 374.996094 L 323.71875 374.996094 Z M 323.71875 358.652344 " clip-rule="nonzero"/></clipPath><clipPath id="b908810cb8"><path d="M 233.605469 249.757812 L 362.167969 249.757812 L 362.167969 374.996094 L 233.605469 374.996094 Z M 233.605469 249.757812 " clip-rule="nonzero"/></clipPath><clipPath id="a1384adda4"><path d="M 359 312 L 375 312 L 375 329 L 359 329 Z M 359 312 " clip-rule="nonzero"/></clipPath><clipPath id="7e5bb0c562"><path d="M 324 312 L 375 312 L 375 345 L 324 345 Z M 324 312 " clip-rule="nonzero"/></clipPath><clipPath id="cc256d9eeb"><path d="M 369.136719 343.027344 L 375 343.027344 L 375 374.996094 L 369.136719 374.996094 Z M 369.136719 343.027344 " clip-rule="nonzero"/></clipPath><clipPath id="1027d05c18"><rect x="0" width="375" y="0" height="375"/></clipPath></defs><rect x="-37.5" width="450" fill="#ffffff" y="-37.499999" height="449.999989" fill-opacity="1"/><rect x="-37.5" width="450" fill="#ffffff" y="-37.499999" height="449.999989" fill-opacity="1"/><g mask="url(#9c4fcc4e06)"><g transform="matrix(1, 0, 0, 1, 0, 0)"><g clip-path="url(#1027d05c18)"><path fill="#9e8954" d="M 54.515625 30.625 L 53.4375 32.496094 L 53.4375 50.835938 L 45.496094 46.253906 L 44.777344 47.5 L 53.4375 52.5 L 53.4375 62.5 L 54.878906 62.5 L 54.878906 31.246094 C 54.878906 30.980469 54.730469 30.75 54.515625 30.625 " fill-opacity="1" fill-rule="nonzero"/><path fill="#9e8954" d="M 90.949219 32.496094 L 90.949219 32.5 L 90.949219 0 L 89.507812 0 L 89.507812 30.003906 L 89.503906 29.996094 L 89.503906 62.5 L 90.949219 62.5 L 90.949219 32.496094 " fill-opacity="1" fill-rule="nonzero"/><path fill="#9e8954" d="M 62.8125 16.253906 L 71.46875 21.253906 L 71.46875 62.082031 L 70.75 62.5 L 72.914062 62.5 L 72.914062 0.414062 L 73.632812 0 L 72.191406 0 L 71.46875 1.25 L 71.46875 19.589844 L 63.535156 15.003906 C 63.53125 15.003906 63.53125 15.003906 63.53125 15.003906 L 62.8125 16.253906 " fill-opacity="1" fill-rule="nonzero"/><path fill="#9e8954" d="M 45.5 78.75 L 72.554688 63.125 C 72.785156 62.988281 72.910156 62.746094 72.910156 62.5 L 70.753906 62.5 L 54.875 71.667969 L 54.875 62.5 L 53.433594 62.5 L 53.433594 72.503906 L 44.777344 77.5 L 45.5 78.75 " fill-opacity="1" fill-rule="nonzero"/><path fill="#9e8954" d="M 63.535156 109.996094 L 89.507812 94.996094 L 90.949219 92.496094 L 62.8125 108.746094 L 63.535156 109.996094 " fill-opacity="1" fill-rule="nonzero"/><path fill="#9e8954" d="M 53.433594 92.5 L 54.515625 94.371094 L 107.542969 63.746094 L 108.261719 62.5 L 108.261719 62.496094 L 109.683594 62.496094 L 108.960938 62.082031 L 108.960938 61.289062 L 108.984375 61.25 L 108.984375 42.910156 L 116.90625 47.484375 L 116.898438 47.496094 L 142.875 62.496094 L 145.757812 62.496094 L 117.636719 46.257812 L 117.644531 46.246094 C 117.644531 46.246094 117.644531 46.246094 117.640625 46.246094 L 108.984375 41.246094 L 108.984375 0.414062 L 109.707031 0 L 107.542969 0 L 107.542969 62.082031 L 106.820312 62.5 L 90.945312 71.667969 L 90.945312 62.5 L 89.503906 62.5 L 89.503906 72.5 L 54.15625 92.917969 L 53.433594 92.5 " fill-opacity="1" fill-rule="nonzero"/><path fill="#9e8954" d="M 71.472656 123.746094 L 72.191406 124.996094 L 72.550781 124.371094 L 72.914062 123.746094 L 72.191406 124.164062 L 71.472656 123.746094 " fill-opacity="1" fill-rule="nonzero"/><path fill="#9e8954" d="M 125.921875 31.863281 L 125.917969 31.871094 L 125.917969 31.875 L 178.941406 62.5 L 180.382812 62.5 L 179.664062 61.25 L 163.789062 52.078125 L 171.722656 47.496094 C 171.726562 47.496094 171.726562 47.496094 171.726562 47.496094 L 171.003906 46.246094 L 162.34375 51.246094 L 127 30.835938 L 127 30.039062 L 127.019531 30.003906 L 127.019531 11.664062 L 134.941406 16.238281 L 134.933594 16.25 L 161.988281 31.878906 C 162.21875 32.007812 162.492188 31.996094 162.707031 31.871094 L 161.628906 30.003906 L 145.753906 20.835938 L 153.691406 16.246094 L 152.96875 15 L 144.308594 20 L 135.671875 15.011719 L 135.679688 14.996094 L 127.019531 9.996094 L 127.019531 0 L 125.578125 0 L 125.578125 31.25 C 125.578125 31.511719 125.714844 31.734375 125.921875 31.863281 " fill-opacity="1" fill-rule="nonzero"/><path fill="#9e8954" d="M 125.9375 93.125 L 72.914062 123.75 L 72.191406 124.996094 L 73.632812 124.996094 L 89.511719 115.828125 L 89.511719 124.996094 C 89.507812 124.996094 89.511719 124.996094 89.511719 124.996094 L 90.949219 124.996094 C 90.949219 124.996094 90.949219 124.996094 90.953125 124.996094 L 90.953125 114.996094 L 126.296875 94.582031 L 127.019531 94.996094 L 125.941406 93.128906 L 125.9375 93.125 " fill-opacity="1" fill-rule="nonzero"/><path fill="#9e8954" d="M 134.957031 108.746094 L 107.902344 124.371094 C 107.671875 124.507812 107.542969 124.746094 107.542969 124.996094 L 109.703125 124.996094 L 125.578125 115.828125 L 125.582031 124.996094 L 127.023438 124.996094 L 127.023438 114.996094 L 135.675781 109.996094 L 134.957031 108.746094 " fill-opacity="1" fill-rule="nonzero"/><path fill="#9e8954" d="M 89.503906 95 L 117.640625 78.75 L 116.921875 77.5 L 90.949219 92.503906 L 89.503906 95 " fill-opacity="1" fill-rule="nonzero"/><path fill="#9e8954" d="M 107.902344 63.125 L 107.542969 63.746094 L 108.261719 63.332031 L 108.984375 63.746094 L 108.261719 62.5 L 107.902344 63.125 " fill-opacity="1" fill-rule="nonzero"/><path fill="#9e8954" d="M 108.265625 62.5 L 108.984375 63.746094 L 124.863281 72.917969 L 116.925781 77.5 C 116.925781 77.5 116.921875 77.503906 116.921875 77.503906 L 117.644531 78.75 L 126.304688 73.75 L 161.648438 94.164062 L 161.648438 94.996094 L 162.730469 93.128906 L 162.730469 93.125 L 109.707031 62.5 L 108.265625 62.5 " fill-opacity="1" fill-rule="nonzero"/><path fill="#9e8954" d="M 125.941406 93.125 L 127.019531 94.996094 L 142.894531 104.164062 L 134.957031 108.75 L 135.679688 109.996094 L 144.335938 104.996094 L 152.992188 109.996094 L 153.714844 108.746094 L 126.660156 93.121094 C 126.429688 92.988281 126.15625 93 125.941406 93.125 " fill-opacity="1" fill-rule="nonzero"/><path fill="#9e8954" d="M 142.890625 62.5 L 171.027344 78.75 L 171.75 77.5 L 145.773438 62.5 L 142.890625 62.5 " fill-opacity="1" fill-rule="nonzero"/><path fill="#9e8954" d="M 180.40625 62.5 L 178.964844 62.5 L 179.6875 62.914062 L 179.6875 63.746094 L 180.40625 62.5 " fill-opacity="1" fill-rule="nonzero"/><path fill="#9e8954" d="M 162.734375 93.125 L 161.652344 94.996094 L 161.652344 113.332031 L 153.714844 108.75 L 152.996094 110 L 161.652344 115 L 161.652344 124.996094 L 163.09375 124.996094 L 163.09375 93.746094 C 163.09375 93.480469 162.949219 93.25 162.734375 93.125 " fill-opacity="1" fill-rule="nonzero"/><path fill="#9e8954" d="M 199.164062 94.996094 L 199.167969 95 L 199.167969 62.5 L 197.726562 62.5 L 197.726562 92.5 L 197.722656 92.496094 L 197.722656 124.996094 L 199.164062 124.996094 L 199.164062 94.996094 " fill-opacity="1" fill-rule="nonzero"/><path fill="#9e8954" d="M 171.75 77.503906 L 171.03125 78.75 C 171.03125 78.75 171.03125 78.753906 171.03125 78.753906 L 179.6875 83.753906 L 179.6875 124.582031 L 178.96875 124.996094 L 181.128906 124.996094 L 181.128906 62.914062 L 181.851562 62.5 L 197.726562 53.328125 L 197.726562 62.496094 L 199.167969 62.496094 L 199.167969 52.496094 L 234.515625 32.082031 L 235.238281 32.496094 L 234.15625 30.628906 L 234.15625 30.625 L 181.128906 61.25 L 180.410156 62.5 L 179.6875 63.746094 L 179.6875 82.085938 L 171.75 77.503906 " fill-opacity="1" fill-rule="nonzero"/><path fill="#9e8954" d="M 181.128906 124.996094 L 178.96875 124.996094 L 163.09375 134.167969 L 163.09375 125 L 161.652344 125 L 161.652344 135 L 152.996094 140 L 153.71875 141.25 L 180.769531 125.621094 C 181.003906 125.488281 181.128906 125.246094 181.128906 124.996094 " fill-opacity="1" fill-rule="nonzero"/><path fill="#9e8954" d="M 171.753906 172.496094 L 197.726562 157.496094 L 199.167969 154.996094 L 171.03125 171.246094 L 171.753906 172.496094 " fill-opacity="1" fill-rule="nonzero"/><path fill="#9e8954" d="M 180.769531 186.871094 L 181.128906 186.246094 L 180.410156 186.664062 L 179.6875 186.246094 L 180.410156 187.496094 L 180.769531 186.871094 " fill-opacity="1" fill-rule="nonzero"/><path fill="#9e8954" d="M 225.859375 108.746094 L 217.203125 103.746094 L 217.203125 62.914062 L 217.921875 62.5 L 215.761719 62.5 L 215.761719 124.582031 L 215.039062 124.996094 L 199.164062 134.167969 L 199.164062 125 C 199.164062 125 199.164062 125 199.164062 124.996094 L 197.722656 124.996094 C 197.722656 125 197.722656 125 197.722656 125 L 197.71875 135 L 162.375 155.414062 L 161.652344 155 L 162.734375 156.871094 L 215.757812 126.246094 L 216.480469 124.996094 L 217.902344 124.996094 L 217.179688 124.582031 L 217.179688 123.785156 L 217.203125 123.75 L 217.203125 105.410156 L 225.125 109.984375 L 225.117188 109.996094 L 251.09375 124.996094 L 253.976562 124.996094 L 225.855469 108.757812 L 225.863281 108.746094 C 225.859375 108.746094 225.859375 108.746094 225.859375 108.746094 " fill-opacity="1" fill-rule="nonzero"/><path fill="#9e8954" d="M 243.175781 171.246094 L 216.117188 186.871094 C 215.886719 187.003906 215.761719 187.246094 215.761719 187.496094 L 217.921875 187.496094 L 233.796875 178.328125 L 233.796875 187.496094 L 235.238281 187.496094 L 235.238281 177.496094 L 243.894531 172.496094 L 243.175781 171.246094 " fill-opacity="1" fill-rule="nonzero"/><path fill="#9e8954" d="M 197.722656 157.5 L 225.859375 141.25 L 225.140625 140 L 199.164062 155 L 197.722656 157.5 " fill-opacity="1" fill-rule="nonzero"/><path fill="#9e8954" d="M 197.726562 187.496094 L 199.167969 187.496094 L 199.167969 177.496094 L 234.515625 157.082031 L 235.238281 157.496094 L 234.15625 155.625 L 181.128906 186.25 L 180.410156 187.496094 L 179.6875 188.746094 L 179.6875 207.085938 L 171.75 202.5 L 171.03125 203.75 L 179.6875 208.75 L 179.6875 249.578125 L 178.96875 249.996094 L 181.128906 249.996094 L 181.128906 187.914062 L 181.851562 187.496094 L 197.726562 178.328125 L 197.726562 187.496094 " fill-opacity="1" fill-rule="nonzero"/><path fill="#9e8954" d="M 216.480469 125 L 216.121094 125.621094 L 215.757812 126.246094 L 216.480469 125.832031 L 217.203125 126.246094 L 216.480469 125 " fill-opacity="1" fill-rule="nonzero"/><path fill="#9e8954" d="M 253.992188 124.996094 L 251.109375 124.996094 L 279.195312 141.21875 L 279.179688 141.25 L 287.835938 146.25 L 287.835938 187.082031 L 287.117188 187.496094 L 289.277344 187.496094 L 289.277344 125.414062 L 290 124.996094 L 288.558594 124.996094 L 288.558594 125 L 287.183594 125 L 287.90625 125.414062 L 287.90625 126.132812 L 287.835938 126.246094 L 287.835938 144.585938 L 279.949219 140.03125 L 279.96875 140 L 253.992188 124.996094 " fill-opacity="1" fill-rule="nonzero"/><path fill="#9e8954" d="M 153.71875 16.25 L 180.769531 0.625 C 181.003906 0.492188 181.128906 0.25 181.128906 0 L 178.96875 0 L 163.09375 9.171875 L 163.09375 0 L 161.652344 0 L 161.652344 10.003906 L 152.996094 15.003906 L 153.71875 16.25 " fill-opacity="1" fill-rule="nonzero"/><path fill="#9e8954" d="M 171.753906 47.496094 L 197.726562 32.496094 L 199.167969 29.996094 L 171.03125 46.246094 L 171.753906 47.496094 " fill-opacity="1" fill-rule="nonzero"/><path fill="#9e8954" d="M 161.652344 30 L 162.734375 31.871094 L 162.734375 31.875 L 215.757812 1.25 L 216.480469 0 L 215.039062 0 L 199.164062 9.167969 L 199.164062 0.00390625 C 199.164062 0 199.164062 0 199.164062 0 L 197.722656 0 C 197.722656 0 197.722656 0 197.722656 0.00390625 L 197.71875 10.003906 L 162.375 30.417969 L 161.652344 30 " fill-opacity="1" fill-rule="nonzero"/><path fill="#9e8954" d="M 180.769531 61.871094 L 181.128906 61.25 L 180.410156 61.667969 L 179.6875 61.25 L 180.410156 62.496094 L 180.769531 61.871094 " fill-opacity="1" fill-rule="nonzero"/><path fill="#9e8954" d="M 243.175781 46.246094 L 216.117188 61.871094 C 215.886719 62.007812 215.761719 62.25 215.761719 62.496094 L 217.921875 62.496094 L 233.796875 53.328125 L 233.796875 62.496094 L 235.238281 62.496094 L 235.238281 52.496094 L 243.894531 47.496094 L 243.175781 46.246094 " fill-opacity="1" fill-rule="nonzero"/><path fill="#9e8954" d="M 197.722656 32.5 L 225.859375 16.25 L 225.140625 15.003906 L 199.164062 30.003906 L 197.722656 32.5 " fill-opacity="1" fill-rule="nonzero"/><path fill="#9e8954" d="M 216.480469 0 L 216.121094 0.625 L 215.757812 1.25 L 216.480469 0.832031 L 217.203125 1.25 L 216.480469 0 " fill-opacity="1" fill-rule="nonzero"/><path fill="#9e8954" d="M 233.078125 10.417969 L 225.140625 15.003906 L 225.863281 16.253906 C 225.863281 16.253906 225.863281 16.25 225.863281 16.25 L 234.519531 11.25 L 269.867188 31.664062 L 269.867188 32.382812 L 269.800781 32.496094 L 269.800781 50.835938 L 261.914062 46.277344 L 261.933594 46.246094 L 234.878906 30.621094 C 234.648438 30.492188 234.371094 30.5 234.15625 30.625 L 235.238281 32.496094 L 251.113281 41.664062 L 243.175781 46.25 L 243.898438 47.5 L 252.554688 42.496094 L 261.160156 47.46875 L 261.144531 47.5 L 269.800781 52.5 L 269.800781 62.5 L 271.242188 62.5 L 271.242188 31.246094 C 271.242188 31.003906 271.117188 30.789062 270.929688 30.660156 L 270.949219 30.628906 L 270.949219 30.625 L 217.925781 0 L 216.480469 0 L 217.203125 1.25 L 233.078125 10.417969 " fill-opacity="1" fill-rule="nonzero"/><path fill="#9e8954" d="M 54.878906 187.496094 L 54.878906 156.246094 C 54.878906 155.980469 54.730469 155.75 54.515625 155.625 L 53.4375 157.496094 L 53.4375 175.832031 L 45.496094 171.25 L 44.777344 172.5 L 53.4375 177.5 L 53.4375 187.496094 L 54.878906 187.496094 " fill-opacity="1" fill-rule="nonzero"/><path fill="#9e8954" d="M 63.53125 140 L 62.8125 141.25 L 71.46875 146.25 L 71.46875 187.082031 L 70.75 187.496094 L 72.914062 187.496094 L 72.914062 125.414062 L 73.632812 124.996094 L 72.191406 124.996094 L 71.46875 126.246094 L 71.46875 144.585938 L 63.535156 140 C 63.53125 140 63.53125 140 63.53125 140 " fill-opacity="1" fill-rule="nonzero"/><path fill="#9e8954" d="M 54.515625 219.371094 L 107.542969 188.746094 L 108.261719 187.496094 L 109.683594 187.496094 L 108.960938 187.082031 L 108.960938 186.285156 L 108.984375 186.25 L 108.984375 167.910156 L 116.90625 172.484375 L 116.898438 172.496094 L 142.875 187.496094 L 145.757812 187.496094 L 117.636719 171.257812 L 117.644531 171.246094 C 117.644531 171.246094 117.644531 171.246094 117.640625 171.246094 L 108.984375 166.242188 L 108.984375 125.414062 L 109.707031 124.996094 L 107.542969 124.996094 L 107.542969 187.082031 L 106.820312 187.496094 L 90.945312 196.667969 L 90.945312 187.5 C 90.945312 187.5 90.945312 187.5 90.945312 187.496094 L 89.503906 187.496094 C 89.503906 187.5 89.503906 187.5 89.503906 187.5 L 89.503906 197.5 L 54.15625 217.914062 L 53.433594 217.496094 L 54.515625 219.367188 L 54.515625 219.371094 " fill-opacity="1" fill-rule="nonzero"/><path fill="#9e8954" d="M 45.5 203.75 L 72.554688 188.121094 C 72.785156 187.988281 72.910156 187.746094 72.910156 187.5 L 70.753906 187.5 L 54.875 196.667969 L 54.875 187.5 L 53.433594 187.5 L 53.433594 197.5 L 44.777344 202.5 L 45.5 203.75 " fill-opacity="1" fill-rule="nonzero"/><path fill="#9e8954" d="M 89.507812 219.996094 L 90.949219 217.496094 L 62.8125 233.746094 L 63.535156 234.996094 L 89.507812 219.996094 " fill-opacity="1" fill-rule="nonzero"/><path fill="#9e8954" d="M 72.550781 249.371094 L 72.914062 248.746094 L 72.191406 249.164062 L 71.472656 248.746094 L 72.191406 249.996094 L 72.550781 249.371094 " fill-opacity="1" fill-rule="nonzero"/><path fill="#9e8954" d="M 161.988281 156.875 C 162.21875 157.007812 162.492188 156.996094 162.707031 156.871094 L 161.628906 155.003906 L 145.753906 145.832031 L 153.691406 141.246094 L 152.96875 139.996094 L 144.308594 145 L 135.671875 140.011719 L 135.679688 139.996094 L 127.019531 134.996094 L 127.019531 124.996094 L 125.578125 124.996094 L 125.578125 156.25 C 125.578125 156.507812 125.714844 156.734375 125.921875 156.859375 L 125.917969 156.871094 L 178.941406 187.496094 L 180.382812 187.496094 L 179.664062 186.25 L 163.789062 177.078125 L 171.722656 172.496094 C 171.726562 172.496094 171.726562 172.496094 171.726562 172.496094 L 171.003906 171.246094 L 162.34375 176.246094 L 127 155.832031 L 127 155.035156 L 127.019531 155 L 127.019531 136.660156 L 134.941406 141.234375 L 134.933594 141.25 L 161.988281 156.875 " fill-opacity="1" fill-rule="nonzero"/><path fill="#9e8954" d="M 89.507812 155 L 89.503906 154.996094 L 89.503906 187.496094 L 90.949219 187.496094 L 90.949219 157.496094 L 90.949219 157.5 L 90.949219 124.996094 L 89.507812 124.996094 L 89.507812 155 " fill-opacity="1" fill-rule="nonzero"/><path fill="#9e8954" d="M 134.957031 233.746094 L 107.902344 249.371094 C 107.671875 249.503906 107.542969 249.746094 107.542969 249.996094 L 109.703125 249.996094 L 125.578125 240.828125 L 125.582031 249.996094 L 127.023438 249.996094 L 127.023438 239.992188 L 135.675781 234.996094 L 134.957031 233.746094 " fill-opacity="1" fill-rule="nonzero"/><path fill="#9e8954" d="M 89.503906 220 L 117.640625 203.75 L 116.921875 202.5 L 90.949219 217.5 L 89.503906 220 " fill-opacity="1" fill-rule="nonzero"/><path fill="#9e8954" d="M 90.953125 249.996094 L 90.953125 239.996094 L 126.296875 219.578125 L 127.019531 219.996094 L 125.941406 218.125 L 125.9375 218.121094 L 72.914062 248.746094 L 72.191406 249.996094 L 73.632812 249.996094 L 89.511719 240.828125 L 89.511719 249.996094 C 89.507812 249.996094 89.511719 249.996094 89.511719 249.996094 L 90.949219 249.996094 C 90.949219 249.996094 90.949219 249.996094 90.953125 249.996094 " fill-opacity="1" fill-rule="nonzero"/><path fill="#9e8954" d="M 108.261719 187.5 L 107.542969 188.746094 L 108.261719 188.332031 L 108.984375 188.746094 L 108.261719 187.5 " fill-opacity="1" fill-rule="nonzero"/><path fill="#9e8954" d="M 171.75 202.5 L 145.773438 187.5 L 142.890625 187.5 L 171.027344 203.75 L 171.75 202.5 " fill-opacity="1" fill-rule="nonzero"/><path fill="#9e8954" d="M 144.335938 229.996094 L 152.992188 234.996094 L 153.714844 233.746094 L 126.660156 218.121094 C 126.429688 217.988281 126.15625 218 125.941406 218.121094 L 127.019531 219.992188 L 142.894531 229.164062 L 134.957031 233.75 L 135.679688 234.996094 L 144.335938 229.996094 " fill-opacity="1" fill-rule="nonzero"/><path fill="#9e8954" d="M 162.730469 218.125 L 162.730469 218.121094 L 109.707031 187.496094 L 108.265625 187.496094 L 108.984375 188.746094 L 124.863281 197.914062 L 116.925781 202.5 C 116.925781 202.5 116.921875 202.5 116.921875 202.5 L 117.644531 203.75 L 126.304688 198.75 L 161.648438 219.164062 L 161.648438 219.996094 L 162.730469 218.125 " fill-opacity="1" fill-rule="nonzero"/><path fill="#9e8954" d="M 180.40625 187.5 L 178.964844 187.5 L 179.6875 187.914062 L 179.6875 188.746094 L 180.40625 187.5 " fill-opacity="1" fill-rule="nonzero"/><path fill="#9e8954" d="M 161.652344 249.996094 L 163.09375 249.996094 L 163.09375 218.746094 C 163.09375 218.480469 162.949219 218.25 162.734375 218.125 L 161.652344 219.996094 L 161.652344 238.332031 L 153.714844 233.75 L 152.996094 235 L 161.652344 240 L 161.652344 249.996094 " fill-opacity="1" fill-rule="nonzero"/><path fill="#9e8954" d="M 153.71875 266.246094 L 180.769531 250.621094 C 181.003906 250.488281 181.128906 250.246094 181.128906 249.996094 L 178.96875 249.996094 L 163.09375 259.164062 L 163.09375 249.996094 L 161.652344 249.996094 L 161.652344 260 L 152.996094 264.996094 L 153.71875 266.246094 " fill-opacity="1" fill-rule="nonzero"/><path fill="#9e8954" d="M 199.167969 279.996094 L 171.03125 296.246094 L 171.753906 297.492188 L 197.726562 282.492188 L 199.167969 279.996094 " fill-opacity="1" fill-rule="nonzero"/><path fill="#9e8954" d="M 180.769531 311.871094 L 181.128906 311.246094 L 180.410156 311.660156 L 179.6875 311.246094 L 180.410156 312.496094 L 180.769531 311.871094 " fill-opacity="1" fill-rule="nonzero"/><path fill="#9e8954" d="M 225.859375 233.742188 L 217.203125 228.742188 L 217.203125 187.914062 L 217.921875 187.496094 L 215.761719 187.496094 L 215.761719 249.578125 L 215.039062 249.996094 L 199.164062 259.164062 L 199.164062 219.996094 L 199.167969 219.996094 L 199.167969 187.496094 L 197.726562 187.496094 L 197.726562 217.5 L 197.722656 217.496094 L 197.722656 249.996094 L 197.71875 259.996094 L 162.375 280.414062 L 161.652344 279.996094 L 162.734375 281.867188 L 162.734375 281.871094 L 215.757812 251.246094 L 216.480469 249.996094 L 217.902344 249.996094 L 217.179688 249.578125 L 217.179688 248.785156 L 217.203125 248.746094 L 217.203125 230.410156 L 225.125 234.984375 L 225.117188 234.996094 L 251.09375 249.996094 L 253.976562 249.996094 L 225.855469 233.753906 L 225.863281 233.746094 C 225.859375 233.746094 225.859375 233.742188 225.859375 233.742188 " fill-opacity="1" fill-rule="nonzero"/><path fill="#9e8954" d="M 243.175781 296.246094 L 216.117188 311.871094 C 215.886719 312.003906 215.761719 312.246094 215.761719 312.496094 L 217.921875 312.496094 L 233.796875 303.324219 L 233.796875 312.496094 L 235.238281 312.496094 L 235.238281 302.492188 L 243.894531 297.492188 L 243.175781 296.246094 " fill-opacity="1" fill-rule="nonzero"/><path fill="#9e8954" d="M 225.140625 264.996094 L 199.164062 280 L 197.722656 282.496094 L 225.859375 266.246094 L 225.140625 264.996094 " fill-opacity="1" fill-rule="nonzero"/><path fill="#9e8954" d="M 215.757812 251.246094 L 216.480469 250.828125 L 217.203125 251.246094 L 216.480469 249.996094 L 216.121094 250.621094 L 215.757812 251.246094 " fill-opacity="1" fill-rule="nonzero"/><path fill="#9e8954" d="M 235.238281 282.496094 L 234.15625 280.625 L 234.15625 280.621094 L 181.128906 311.246094 L 180.410156 312.496094 L 181.851562 312.496094 L 197.726562 303.328125 L 197.726562 312.496094 L 199.167969 312.496094 L 199.167969 302.492188 L 234.515625 282.078125 L 235.238281 282.496094 " fill-opacity="1" fill-rule="nonzero"/><path fill="#9e8954" d="M 53.4375 312.496094 L 54.878906 312.496094 L 54.878906 281.246094 C 54.878906 280.980469 54.730469 280.746094 54.515625 280.621094 L 53.4375 282.492188 L 53.4375 300.832031 L 45.496094 296.246094 L 44.777344 297.496094 L 53.4375 302.496094 L 53.4375 312.496094 " fill-opacity="1" fill-rule="nonzero"/><path fill="#9e8954" d="M 45.5 328.746094 L 72.554688 313.121094 C 72.785156 312.988281 72.910156 312.746094 72.910156 312.496094 L 70.753906 312.496094 L 54.875 321.664062 L 54.875 312.496094 L 53.433594 312.496094 L 53.433594 322.496094 L 44.777344 327.496094 L 45.5 328.746094 " fill-opacity="1" fill-rule="nonzero"/><path fill="#9e8954" d="M 90.949219 342.492188 L 62.8125 358.746094 L 63.535156 359.992188 L 89.507812 344.992188 L 90.949219 342.492188 " fill-opacity="1" fill-rule="nonzero"/><g clip-path="url(#a96d5be21f)"><path fill="#9e8954" d="M 72.191406 374.996094 L 72.550781 374.371094 L 72.914062 373.746094 L 72.191406 374.160156 L 71.472656 373.746094 L 72.191406 374.996094 " fill-opacity="1" fill-rule="nonzero"/></g><path fill="#9e8954" d="M 180.382812 312.496094 L 179.664062 311.246094 L 163.789062 302.078125 L 171.722656 297.492188 C 171.726562 297.492188 171.726562 297.492188 171.726562 297.492188 L 171.003906 296.246094 L 162.34375 301.246094 L 127 280.828125 L 127 280.035156 L 127.019531 280 L 127.019531 261.660156 L 134.941406 266.234375 L 134.933594 266.246094 L 161.988281 281.871094 C 162.21875 282.007812 162.492188 281.996094 162.707031 281.871094 L 161.628906 280 L 145.753906 270.828125 L 153.691406 266.246094 L 152.96875 264.996094 L 144.308594 269.996094 L 135.671875 265.007812 L 135.679688 264.996094 L 127.019531 259.996094 L 127.019531 249.996094 L 125.578125 249.996094 L 125.578125 281.246094 C 125.578125 281.507812 125.714844 281.734375 125.921875 281.859375 L 125.917969 281.867188 L 125.917969 281.871094 L 178.941406 312.496094 L 180.382812 312.496094 " fill-opacity="1" fill-rule="nonzero"/><path fill="#9e8954" d="M 117.636719 296.253906 L 117.644531 296.246094 C 117.644531 296.242188 117.644531 296.242188 117.640625 296.242188 L 108.984375 291.242188 L 108.984375 250.414062 L 109.707031 249.996094 L 107.542969 249.996094 L 107.542969 312.078125 L 106.820312 312.496094 L 90.945312 321.664062 L 90.945312 312.496094 L 89.503906 312.496094 L 89.503906 322.496094 L 54.15625 342.914062 L 53.433594 342.496094 L 54.515625 344.367188 L 54.515625 344.371094 L 107.542969 313.746094 L 108.261719 312.496094 L 109.683594 312.496094 L 108.960938 312.078125 L 108.960938 311.285156 L 108.984375 311.246094 L 108.984375 292.910156 L 116.90625 297.484375 L 116.898438 297.492188 L 142.875 312.496094 L 145.757812 312.496094 L 117.636719 296.253906 " fill-opacity="1" fill-rule="nonzero"/><path fill="#9e8954" d="M 89.507812 279.996094 L 89.503906 279.996094 L 89.503906 312.496094 L 90.949219 312.496094 L 90.949219 282.492188 L 90.949219 282.496094 L 90.949219 249.996094 L 89.507812 249.996094 L 89.507812 279.996094 " fill-opacity="1" fill-rule="nonzero"/><path fill="#9e8954" d="M 73.632812 249.996094 L 72.191406 249.996094 L 71.46875 251.246094 L 71.46875 269.582031 L 63.535156 265 C 63.53125 265 63.53125 265 63.53125 265 L 62.8125 266.246094 C 62.8125 266.246094 62.8125 266.25 62.8125 266.25 L 71.46875 271.25 L 71.46875 312.078125 L 70.75 312.496094 L 72.914062 312.496094 L 72.914062 250.414062 L 73.632812 249.996094 " fill-opacity="1" fill-rule="nonzero"/><g clip-path="url(#9418b72a06)"><path fill="#9e8954" d="M 134.957031 358.746094 L 107.902344 374.371094 C 107.671875 374.503906 107.542969 374.746094 107.542969 374.996094 L 109.703125 374.996094 L 125.578125 365.824219 L 125.582031 374.996094 L 127.023438 374.996094 L 127.023438 364.992188 L 135.675781 359.992188 L 134.957031 358.746094 " fill-opacity="1" fill-rule="nonzero"/></g><path fill="#9e8954" d="M 116.921875 327.496094 L 90.949219 342.496094 L 89.503906 344.996094 L 117.640625 328.746094 L 116.921875 327.496094 " fill-opacity="1" fill-rule="nonzero"/><g clip-path="url(#e7c83f7e09)"><path fill="#9e8954" d="M 127.019531 344.996094 L 125.941406 343.121094 L 125.9375 343.121094 L 72.914062 373.746094 L 72.191406 374.996094 L 73.632812 374.996094 L 89.511719 365.824219 L 89.511719 374.992188 C 89.507812 374.992188 89.511719 374.996094 89.511719 374.996094 L 90.949219 374.996094 L 90.949219 374.992188 L 90.953125 364.992188 L 126.296875 344.578125 L 127.019531 344.996094 " fill-opacity="1" fill-rule="nonzero"/></g><path fill="#9e8954" d="M 108.261719 312.496094 L 107.542969 313.746094 L 108.261719 313.328125 L 108.984375 313.746094 L 108.261719 312.496094 " fill-opacity="1" fill-rule="nonzero"/><path fill="#9e8954" d="M 126.660156 343.117188 C 126.429688 342.984375 126.15625 342.996094 125.941406 343.121094 L 127.019531 344.992188 L 142.894531 354.160156 L 134.957031 358.746094 L 135.679688 359.996094 L 144.335938 354.992188 L 152.992188 359.992188 L 153.714844 358.746094 L 126.660156 343.117188 " fill-opacity="1" fill-rule="nonzero"/><path fill="#9e8954" d="M 145.773438 312.496094 L 142.890625 312.496094 L 171.027344 328.746094 L 171.75 327.496094 L 145.773438 312.496094 " fill-opacity="1" fill-rule="nonzero"/><path fill="#9e8954" d="M 162.730469 343.121094 L 109.707031 312.496094 L 108.265625 312.496094 L 108.984375 313.746094 L 124.863281 322.914062 L 116.925781 327.496094 C 116.925781 327.496094 116.921875 327.496094 116.921875 327.496094 L 117.644531 328.746094 L 126.304688 323.746094 L 161.648438 344.160156 L 161.648438 344.996094 L 162.730469 343.121094 " fill-opacity="1" fill-rule="nonzero"/><path fill="#9e8954" d="M 180.40625 312.496094 L 178.964844 312.496094 L 179.6875 312.914062 L 179.6875 313.746094 L 180.40625 312.496094 " fill-opacity="1" fill-rule="nonzero"/><g clip-path="url(#97e6f85dc4)"><path fill="#9e8954" d="M 162.734375 343.121094 L 161.652344 344.992188 L 161.652344 363.332031 L 153.714844 358.746094 L 152.996094 359.996094 L 161.652344 364.996094 L 161.652344 374.996094 L 163.09375 374.996094 L 163.09375 343.742188 C 163.09375 343.476562 162.949219 343.246094 162.734375 343.121094 " fill-opacity="1" fill-rule="nonzero"/></g><g clip-path="url(#3b660620b0)"><path fill="#9e8954" d="M 197.726562 342.496094 L 197.722656 342.496094 L 197.722656 374.996094 L 199.164062 374.996094 L 199.164062 344.992188 L 199.167969 344.996094 L 199.167969 312.496094 L 197.726562 312.496094 L 197.726562 342.496094 " fill-opacity="1" fill-rule="nonzero"/></g><g clip-path="url(#1880b18e5e)"><path fill="#9e8954" d="M 225.863281 358.742188 C 225.859375 358.742188 225.859375 358.742188 225.859375 358.742188 L 217.203125 353.742188 L 217.203125 312.910156 L 217.921875 312.496094 L 215.761719 312.496094 L 215.761719 374.578125 L 215.039062 374.996094 L 217.902344 374.996094 L 217.179688 374.578125 L 217.179688 373.785156 L 217.203125 373.746094 L 217.203125 355.40625 L 225.125 359.984375 L 225.117188 359.992188 L 251.09375 374.996094 L 253.976562 374.996094 L 225.855469 358.753906 L 225.863281 358.742188 " fill-opacity="1" fill-rule="nonzero"/></g><g clip-path="url(#cf8789a93a)"><path fill="#9e8954" d="M 181.851562 312.496094 L 180.410156 312.496094 L 179.6875 313.746094 L 179.6875 332.082031 L 171.75 327.5 C 171.75 327.5 171.75 327.5 171.75 327.496094 L 171.03125 328.746094 L 179.6875 333.75 L 179.6875 374.578125 L 178.96875 374.996094 L 181.128906 374.996094 L 181.128906 312.910156 L 181.851562 312.496094 " fill-opacity="1" fill-rule="nonzero"/></g><path fill="#9e8954" d="M 17.679688 94.371094 L 70.707031 124.996094 L 72.148438 124.996094 L 71.425781 123.75 L 55.550781 114.578125 L 63.488281 109.996094 L 62.769531 108.746094 C 62.769531 108.746094 62.769531 108.746094 62.765625 108.746094 L 54.109375 113.746094 L 18.761719 93.332031 L 18.761719 92.539062 L 18.78125 92.503906 L 18.78125 74.164062 L 26.703125 78.738281 L 26.699219 78.75 L 53.753906 94.375 C 53.984375 94.507812 54.257812 94.496094 54.472656 94.371094 L 53.394531 92.503906 L 37.515625 83.332031 L 45.453125 78.746094 L 44.734375 77.496094 L 36.074219 82.5 L 27.433594 77.511719 L 27.441406 77.496094 L 18.78125 72.496094 L 18.78125 62.5 L 17.339844 62.5 L 17.339844 93.75 C 17.339844 94.007812 17.480469 94.234375 17.6875 94.359375 L 17.683594 94.371094 L 17.679688 94.371094 " fill-opacity="1" fill-rule="nonzero"/><path fill="#9e8954" d="M 0.726562 124.996094 L 1.445312 124.996094 L 0.726562 124.582031 L 0.726562 123.789062 L 0.746094 123.75 L 0.746094 105.410156 L 8.667969 109.984375 L 8.664062 109.996094 L 34.636719 124.996094 L 37.519531 124.996094 L 9.402344 108.757812 L 9.40625 108.746094 L 0.746094 103.746094 L 0.746094 62.914062 L 1.46875 62.5 L 0.0273438 62.5 L 0.0273438 124.996094 L 0.726562 124.996094 " fill-opacity="1" fill-rule="nonzero"/><path fill="#9e8954" d="M 17.34375 178.328125 L 17.34375 187.496094 L 18.785156 187.496094 L 18.785156 177.496094 L 27.441406 172.496094 L 26.71875 171.246094 L 0.0273438 186.664062 L 0.0273438 187.496094 L 1.464844 187.496094 L 17.34375 178.328125 " fill-opacity="1" fill-rule="nonzero"/><path fill="#9e8954" d="M 8.683594 140 L 0.0273438 145 L 0.0273438 146.664062 L 9.40625 141.25 L 8.683594 140 " fill-opacity="1" fill-rule="nonzero"/><path fill="#9e8954" d="M 18.78125 157.496094 L 17.703125 155.625 L 0.0273438 165.832031 L 0.0273438 167.496094 L 18.0625 157.082031 L 18.78125 157.496094 " fill-opacity="1" fill-rule="nonzero"/><path fill="#9e8954" d="M 0.0273438 125 L 0.0273438 125.832031 L 0.746094 126.246094 Z M 0.0273438 125 " fill-opacity="1" fill-rule="nonzero"/><path fill="#9e8954" d="M 62.792969 141.25 L 63.511719 140 L 37.539062 124.996094 L 34.65625 124.996094 L 62.792969 141.25 " fill-opacity="1" fill-rule="nonzero"/><path fill="#9e8954" d="M 27.441406 172.5 L 36.101562 167.496094 L 44.757812 172.496094 L 45.476562 171.246094 L 18.421875 155.621094 C 18.191406 155.488281 17.917969 155.5 17.703125 155.625 L 18.78125 157.496094 L 34.660156 166.664062 L 26.722656 171.25 L 27.441406 172.5 " fill-opacity="1" fill-rule="nonzero"/><path fill="#9e8954" d="M 8.6875 140 L 9.40625 141.25 C 9.40625 141.25 9.40625 141.25 9.410156 141.25 L 18.066406 136.25 L 53.414062 156.664062 L 53.414062 157.496094 L 54.492188 155.625 L 54.496094 155.625 L 1.46875 124.996094 L 0.0273438 124.996094 L 0.75 126.246094 L 16.625 135.417969 L 8.6875 140 " fill-opacity="1" fill-rule="nonzero"/><path fill="#9e8954" d="M 72.171875 125 L 70.730469 125 L 71.449219 125.414062 L 71.449219 126.246094 L 72.171875 125 " fill-opacity="1" fill-rule="nonzero"/><path fill="#9e8954" d="M 17.34375 53.328125 L 17.34375 62.496094 L 18.785156 62.496094 L 18.785156 52.496094 L 27.441406 47.496094 L 26.71875 46.246094 L 0.0273438 61.664062 L 0.0273438 62.496094 L 1.464844 62.496094 L 17.34375 53.328125 " fill-opacity="1" fill-rule="nonzero"/><path fill="#9e8954" d="M 8.683594 15.003906 L 0.0273438 20.003906 L 0.0273438 21.664062 L 9.40625 16.25 L 8.683594 15.003906 " fill-opacity="1" fill-rule="nonzero"/><path fill="#9e8954" d="M 18.78125 32.496094 L 17.703125 30.628906 L 17.703125 30.625 L 0.0273438 40.835938 L 0.0273438 42.496094 L 18.0625 32.082031 L 18.78125 32.496094 " fill-opacity="1" fill-rule="nonzero"/><path fill="#9e8954" d="M 0.0273438 0.00390625 L 0.0273438 0.832031 L 0.746094 1.25 Z M 0.0273438 0.00390625 " fill-opacity="1" fill-rule="nonzero"/><path fill="#9e8954" d="M 16.625 10.417969 L 8.6875 15.003906 L 9.40625 16.253906 C 9.40625 16.253906 9.40625 16.25 9.410156 16.25 L 18.066406 11.25 L 53.414062 31.664062 L 53.414062 32.496094 L 54.492188 30.628906 L 54.496094 30.625 L 1.46875 0 L 0.0273438 0 L 0.75 1.25 L 16.625 10.417969 " fill-opacity="1" fill-rule="nonzero"/><path fill="#9e8954" d="M 63.511719 15.003906 L 37.539062 0 L 34.65625 0 L 62.792969 16.25 L 63.511719 15.003906 " fill-opacity="1" fill-rule="nonzero"/><path fill="#9e8954" d="M 27.441406 47.5 L 36.101562 42.496094 L 44.757812 47.496094 L 45.476562 46.246094 L 18.421875 30.621094 C 18.191406 30.492188 17.917969 30.5 17.703125 30.625 L 18.78125 32.496094 L 34.660156 41.664062 L 26.722656 46.25 L 27.441406 47.5 " fill-opacity="1" fill-rule="nonzero"/><path fill="#9e8954" d="M 71.449219 1.25 L 72.171875 0 L 70.730469 0 L 71.449219 0.417969 L 71.449219 1.25 " fill-opacity="1" fill-rule="nonzero"/><path fill="#9e8954" d="M 17.679688 219.371094 L 70.707031 249.996094 L 72.148438 249.996094 L 71.425781 248.746094 L 55.550781 239.578125 L 63.488281 234.996094 C 63.488281 234.996094 63.488281 234.992188 63.488281 234.992188 L 62.769531 233.746094 C 62.769531 233.746094 62.769531 233.746094 62.765625 233.746094 L 54.109375 238.746094 L 18.761719 218.332031 L 18.761719 217.535156 L 18.78125 217.5 L 18.78125 199.160156 L 26.703125 203.734375 L 26.699219 203.75 L 53.753906 219.375 C 53.984375 219.507812 54.257812 219.496094 54.472656 219.371094 L 53.394531 217.5 L 37.515625 208.332031 L 45.453125 203.746094 L 44.734375 202.496094 L 36.074219 207.496094 L 27.433594 202.507812 L 27.441406 202.496094 L 18.78125 197.496094 L 18.78125 187.496094 L 17.339844 187.496094 L 17.339844 218.75 C 17.339844 219.007812 17.480469 219.234375 17.6875 219.359375 L 17.683594 219.367188 L 17.679688 219.371094 " fill-opacity="1" fill-rule="nonzero"/><path fill="#9e8954" d="M 0.726562 249.996094 L 1.445312 249.996094 L 0.726562 249.578125 L 0.726562 248.785156 L 0.746094 248.746094 L 0.746094 230.410156 L 8.667969 234.984375 L 8.664062 234.996094 L 34.636719 249.996094 L 37.519531 249.996094 L 9.402344 233.753906 L 9.40625 233.746094 C 9.40625 233.746094 9.40625 233.742188 9.40625 233.742188 L 0.746094 228.742188 L 0.746094 187.914062 L 1.46875 187.496094 L 0.0273438 187.496094 L 0.0273438 249.996094 L 0.726562 249.996094 " fill-opacity="1" fill-rule="nonzero"/><path fill="#9e8954" d="M 17.34375 303.324219 L 17.34375 312.496094 L 18.785156 312.496094 L 18.785156 302.492188 L 27.441406 297.492188 L 26.71875 296.246094 L 0.0273438 311.660156 L 0.0273438 312.496094 L 1.464844 312.496094 L 17.34375 303.324219 " fill-opacity="1" fill-rule="nonzero"/><path fill="#9e8954" d="M 8.683594 264.996094 L 0.0273438 269.996094 L 0.0273438 271.664062 L 9.40625 266.246094 L 8.683594 264.996094 " fill-opacity="1" fill-rule="nonzero"/><path fill="#9e8954" d="M 18.78125 282.496094 L 17.703125 280.625 L 17.703125 280.621094 L 0.0273438 290.828125 L 0.0273438 292.496094 L 18.0625 282.078125 L 18.78125 282.496094 " fill-opacity="1" fill-rule="nonzero"/><path fill="#9e8954" d="M 0.0273438 250 L 0.0273438 250.832031 L 0.746094 251.246094 Z M 0.0273438 250 " fill-opacity="1" fill-rule="nonzero"/><path fill="#9e8954" d="M 62.792969 266.246094 L 63.511719 264.996094 L 37.539062 249.996094 L 34.65625 249.996094 L 62.792969 266.246094 " fill-opacity="1" fill-rule="nonzero"/><path fill="#9e8954" d="M 27.441406 297.496094 L 36.101562 292.496094 L 44.757812 297.492188 L 45.476562 296.246094 L 18.421875 280.621094 C 18.191406 280.484375 17.917969 280.496094 17.703125 280.621094 L 18.78125 282.492188 L 34.660156 291.660156 L 26.722656 296.246094 L 27.441406 297.496094 " fill-opacity="1" fill-rule="nonzero"/><path fill="#9e8954" d="M 8.6875 265 L 9.40625 266.246094 C 9.40625 266.246094 9.40625 266.246094 9.410156 266.246094 L 18.066406 261.246094 L 53.414062 281.664062 L 53.414062 282.496094 L 54.492188 280.625 L 54.496094 280.621094 L 1.46875 249.996094 L 0.0273438 249.996094 L 0.75 251.246094 L 16.625 260.414062 L 8.6875 264.996094 C 8.6875 264.996094 8.6875 265 8.6875 265 " fill-opacity="1" fill-rule="nonzero"/><path fill="#9e8954" d="M 72.171875 249.996094 L 70.730469 249.996094 L 71.449219 250.414062 L 71.449219 251.246094 L 72.171875 249.996094 " fill-opacity="1" fill-rule="nonzero"/><g clip-path="url(#162ceeb4f7)"><path fill="#9e8954" d="M 55.550781 364.578125 L 63.488281 359.992188 L 62.769531 358.742188 C 62.769531 358.742188 62.769531 358.742188 62.765625 358.742188 L 54.109375 363.742188 L 18.761719 343.328125 L 18.761719 342.535156 L 18.78125 342.496094 L 18.78125 324.160156 L 26.703125 328.734375 L 26.699219 328.746094 L 53.753906 344.371094 C 53.984375 344.503906 54.257812 344.492188 54.472656 344.371094 L 53.394531 342.5 L 37.515625 333.328125 L 45.453125 328.746094 L 44.734375 327.496094 L 36.074219 332.496094 L 27.433594 327.507812 L 27.441406 327.496094 L 18.78125 322.492188 L 18.78125 312.496094 L 17.339844 312.496094 L 17.339844 343.746094 C 17.339844 344.007812 17.480469 344.230469 17.6875 344.359375 L 17.683594 344.367188 L 17.679688 344.371094 L 70.707031 374.996094 L 72.148438 374.996094 L 71.425781 373.746094 L 55.550781 364.578125 " fill-opacity="1" fill-rule="nonzero"/></g><g clip-path="url(#136308aa2f)"><path fill="#9e8954" d="M 9.40625 358.742188 L 0.746094 353.742188 L 0.746094 312.910156 L 1.46875 312.496094 L 0.0273438 312.496094 L 0.0273438 374.996094 L 1.445312 374.996094 L 0.726562 374.578125 L 0.726562 373.785156 L 0.746094 373.746094 L 0.746094 355.40625 L 8.667969 359.984375 L 8.664062 359.992188 L 34.636719 374.996094 L 37.519531 374.996094 L 9.402344 358.753906 L 9.40625 358.742188 " fill-opacity="1" fill-rule="nonzero"/></g><path fill="#9e8954" d="M 307.3125 32.496094 L 307.316406 32.5 L 307.316406 0 L 305.875 0 L 305.875 30.003906 L 305.871094 29.996094 L 305.871094 62.5 L 307.3125 62.5 L 307.3125 32.496094 " fill-opacity="1" fill-rule="nonzero"/><path fill="#9e8954" d="M 289.183594 21.195312 C 289.117188 21.3125 289.023438 21.402344 288.914062 21.464844 C 289.023438 21.402344 289.117188 21.3125 289.183594 21.195312 C 289.285156 21.023438 289.304688 20.828125 289.253906 20.652344 C 289.304688 20.828125 289.285156 21.023438 289.183594 21.195312 Z M 288.558594 21.558594 C 288.621094 21.558594 288.683594 21.550781 288.742188 21.535156 C 288.683594 21.550781 288.621094 21.558594 288.558594 21.558594 Z M 279.179688 16.253906 L 287.835938 21.253906 L 287.835938 62.082031 L 287.117188 62.5 L 289.277344 62.5 L 289.277344 0.414062 L 290 0 L 287.183594 0 L 287.90625 0.417969 L 287.90625 1.132812 L 287.835938 1.25 L 287.835938 19.589844 L 279.949219 15.03125 L 279.96875 15.003906 L 253.992188 0 L 251.109375 0 L 279.195312 16.222656 L 279.179688 16.253906 " fill-opacity="1" fill-rule="nonzero"/><path fill="#9e8954" d="M 269.867188 92.535156 L 269.847656 92.503906 L 253.972656 83.332031 L 261.910156 78.746094 L 261.898438 78.730469 L 288.921875 63.125 C 289.152344 62.988281 289.277344 62.746094 289.277344 62.5 L 287.121094 62.5 L 271.242188 71.667969 L 271.242188 62.5 L 269.800781 62.5 L 269.800781 72.503906 L 261.144531 77.5 L 261.15625 77.515625 L 252.527344 82.5 L 243.890625 77.511719 L 243.898438 77.496094 L 235.238281 72.496094 L 235.238281 62.5 L 233.796875 62.5 L 233.796875 93.75 C 233.796875 94.007812 233.933594 94.234375 234.140625 94.359375 L 234.136719 94.371094 L 287.160156 124.996094 L 290 124.996094 L 305.878906 115.828125 L 305.878906 124.996094 L 307.320312 124.996094 L 307.320312 114.996094 L 342.664062 94.582031 L 343.386719 94.996094 L 342.308594 93.128906 L 342.304688 93.125 L 289.277344 123.75 L 288.578125 124.960938 L 288.921875 124.371094 L 289.28125 123.746094 L 288.5625 124.164062 L 287.902344 123.785156 L 287.878906 123.75 L 272.007812 114.578125 L 279.941406 109.996094 L 279.933594 109.980469 L 305.875 94.996094 L 307.316406 92.496094 L 279.179688 108.746094 L 279.191406 108.765625 L 270.5625 113.746094 L 235.214844 93.332031 L 235.214844 92.539062 L 235.238281 92.503906 L 235.238281 74.164062 L 243.160156 78.738281 L 243.152344 78.75 L 270.207031 94.375 C 270.441406 94.507812 270.710938 94.496094 270.925781 94.371094 L 270.917969 94.355469 L 323.910156 63.746094 L 324.628906 62.5 L 324.628906 62.496094 L 326.050781 62.496094 L 325.328125 62.082031 L 325.328125 61.289062 L 325.351562 61.25 L 325.351562 42.910156 L 333.273438 47.484375 L 333.265625 47.496094 L 359.238281 62.496094 L 362.121094 62.496094 L 334.003906 46.257812 L 334.011719 46.246094 L 325.351562 41.246094 L 325.351562 0.414062 L 326.074219 0 L 323.910156 0 L 323.910156 62.082031 L 323.1875 62.5 L 307.3125 71.667969 L 307.3125 62.5 L 305.871094 62.5 L 305.871094 72.5 L 270.523438 92.917969 L 269.867188 92.535156 " fill-opacity="1" fill-rule="nonzero"/><g clip-path="url(#60b222c31c)"><path fill="#9e8954" d="M 342.292969 31.863281 L 342.285156 31.871094 L 342.285156 31.875 L 395.308594 62.5 L 396.75 62.5 L 396.03125 61.25 L 380.152344 52.078125 L 388.089844 47.496094 C 388.09375 47.496094 388.09375 47.496094 388.09375 47.496094 L 387.371094 46.246094 L 378.710938 51.246094 L 343.363281 30.835938 L 343.363281 30.039062 L 343.386719 30.003906 L 343.386719 11.664062 L 351.308594 16.238281 L 351.300781 16.25 L 378.355469 31.878906 C 378.585938 32.007812 378.859375 31.996094 379.078125 31.871094 L 378 30.003906 L 362.121094 20.835938 L 370.058594 16.246094 L 369.335938 15 L 360.679688 20 L 352.039062 15.011719 L 352.046875 14.996094 L 343.386719 9.996094 L 343.386719 0 L 341.945312 0 L 341.945312 31.25 C 341.945312 31.511719 342.085938 31.734375 342.292969 31.863281 " fill-opacity="1" fill-rule="nonzero"/></g><path fill="#9e8954" d="M 323.910156 124.996094 L 326.070312 124.996094 L 341.949219 115.828125 L 341.949219 124.996094 L 343.390625 124.996094 L 343.390625 114.996094 L 352.046875 109.996094 L 351.324219 108.746094 L 324.269531 124.371094 C 324.039062 124.507812 323.914062 124.746094 323.910156 124.996094 " fill-opacity="1" fill-rule="nonzero"/><path fill="#9e8954" d="M 305.871094 95 L 334.011719 78.75 L 333.289062 77.5 L 307.3125 92.503906 L 305.871094 95 " fill-opacity="1" fill-rule="nonzero"/><path fill="#9e8954" d="M 324.628906 62.5 L 324.269531 63.125 L 323.910156 63.746094 L 324.628906 63.332031 L 325.351562 63.746094 L 324.628906 62.5 " fill-opacity="1" fill-rule="nonzero"/><path fill="#9e8954" d="M 359.265625 104.164062 L 351.324219 108.75 L 352.046875 109.996094 L 360.707031 104.996094 L 369.359375 109.996094 L 370.082031 108.746094 L 343.027344 93.121094 C 342.796875 92.988281 342.523438 93 342.308594 93.125 L 343.386719 94.996094 L 359.265625 104.164062 " fill-opacity="1" fill-rule="nonzero"/><g clip-path="url(#aa94744fa2)"><path fill="#9e8954" d="M 388.117188 77.5 L 362.144531 62.5 L 359.257812 62.5 L 387.394531 78.75 L 388.117188 77.5 " fill-opacity="1" fill-rule="nonzero"/></g><g clip-path="url(#f1b2c01a2c)"><path fill="#9e8954" d="M 334.011719 78.75 L 342.671875 73.75 L 378.015625 94.164062 L 378.015625 94.996094 L 379.097656 93.128906 L 379.097656 93.125 L 326.074219 62.5 L 324.628906 62.5 L 325.351562 63.746094 L 341.226562 72.917969 L 333.289062 77.5 C 333.289062 77.5 333.289062 77.503906 333.289062 77.503906 L 334.011719 78.75 " fill-opacity="1" fill-rule="nonzero"/></g><g clip-path="url(#043cb1fae0)"><path fill="#9e8954" d="M 379.464844 124.996094 L 379.464844 93.746094 C 379.464844 93.480469 379.316406 93.25 379.101562 93.125 L 378.023438 94.996094 L 378.023438 113.332031 L 370.082031 108.75 L 369.359375 110 L 378.023438 115 L 378.023438 124.996094 L 379.464844 124.996094 " fill-opacity="1" fill-rule="nonzero"/></g><g clip-path="url(#b3c3855d8a)"><path fill="#9e8954" d="M 397.496094 124.996094 L 395.339844 124.996094 L 379.460938 134.167969 L 379.457031 125 L 378.015625 125 L 378.019531 135 L 369.363281 140 L 370.085938 141.25 L 397.136719 125.621094 C 397.371094 125.488281 397.496094 125.246094 397.496094 124.996094 " fill-opacity="1" fill-rule="nonzero"/></g><g clip-path="url(#0099019cf8)"><path fill="#9e8954" d="M 370.085938 16.25 L 397.136719 0.625 C 397.371094 0.492188 397.496094 0.25 397.496094 0 L 395.339844 0 L 379.460938 9.171875 L 379.457031 0 L 378.015625 0 L 378.019531 10.003906 L 369.363281 15.003906 L 370.085938 16.25 " fill-opacity="1" fill-rule="nonzero"/></g><path fill="#9e8954" d="M 271.242188 187.496094 L 271.242188 156.246094 C 271.242188 156 271.117188 155.785156 270.929688 155.65625 L 270.949219 155.625 L 217.925781 124.996094 L 216.480469 124.996094 L 217.203125 126.246094 L 233.078125 135.417969 L 225.140625 140 L 225.863281 141.25 L 234.519531 136.25 L 269.867188 156.664062 L 269.867188 157.382812 L 269.800781 157.496094 L 269.800781 175.832031 L 261.914062 171.277344 L 261.933594 171.246094 L 234.878906 155.621094 C 234.648438 155.488281 234.371094 155.5 234.15625 155.625 L 235.238281 157.496094 L 251.113281 166.664062 L 243.175781 171.25 L 243.898438 172.5 L 252.554688 167.496094 L 261.160156 172.46875 L 261.144531 172.5 L 269.800781 177.5 L 269.800781 187.496094 L 271.242188 187.496094 " fill-opacity="1" fill-rule="nonzero"/><path fill="#9e8954" d="M 307.3125 157.496094 L 307.316406 157.5 L 307.316406 124.996094 L 305.875 124.996094 L 305.875 155 L 305.871094 154.996094 L 305.871094 187.496094 L 307.3125 187.496094 L 307.3125 157.496094 " fill-opacity="1" fill-rule="nonzero"/><g clip-path="url(#a9661e4c50)"><path fill="#9e8954" d="M 378.355469 156.875 C 378.585938 157.007812 378.859375 156.996094 379.078125 156.871094 L 378 155.003906 L 362.121094 145.832031 L 370.058594 141.246094 L 369.335938 139.996094 L 360.679688 145 L 352.039062 140.011719 L 352.046875 139.996094 L 343.386719 134.996094 L 343.386719 124.996094 L 341.945312 124.996094 L 341.945312 156.25 C 341.945312 156.507812 342.085938 156.734375 342.292969 156.859375 L 342.285156 156.871094 L 395.308594 187.496094 L 396.75 187.496094 L 396.03125 186.25 L 380.152344 177.078125 L 388.089844 172.496094 C 388.089844 172.496094 388.09375 172.496094 388.09375 172.496094 L 387.371094 171.246094 L 378.710938 176.246094 L 343.363281 155.832031 L 343.363281 155.035156 L 343.386719 155 L 343.386719 136.660156 L 351.308594 141.234375 L 351.300781 141.25 L 378.355469 156.875 " fill-opacity="1" fill-rule="nonzero"/></g><path fill="#9e8954" d="M 341.949219 240.828125 L 341.949219 249.996094 L 343.390625 249.996094 L 343.390625 239.992188 L 352.046875 234.996094 L 351.324219 233.746094 L 324.269531 249.371094 C 324.039062 249.503906 323.914062 249.746094 323.910156 249.996094 L 326.070312 249.996094 L 341.949219 240.828125 " fill-opacity="1" fill-rule="nonzero"/><path fill="#9e8954" d="M 305.871094 220 L 334.011719 203.75 L 333.289062 202.5 L 307.3125 217.5 L 305.871094 220 " fill-opacity="1" fill-rule="nonzero"/><path fill="#9e8954" d="M 307.320312 249.996094 L 307.320312 239.996094 L 342.664062 219.578125 L 343.386719 219.996094 L 342.308594 218.125 L 342.304688 218.121094 L 289.277344 248.746094 L 288.578125 249.957031 L 288.921875 249.371094 L 289.28125 248.746094 L 288.5625 249.164062 L 287.902344 248.785156 L 287.878906 248.746094 L 272.007812 239.578125 L 279.941406 234.996094 C 279.941406 234.996094 279.941406 234.992188 279.941406 234.992188 L 279.933594 234.976562 L 305.875 219.996094 L 307.316406 217.496094 L 279.179688 233.746094 L 279.191406 233.765625 L 270.5625 238.746094 L 235.214844 218.332031 L 235.214844 217.535156 L 235.238281 217.5 L 235.238281 199.160156 L 243.160156 203.734375 L 243.152344 203.75 L 270.207031 219.375 C 270.441406 219.507812 270.710938 219.496094 270.925781 219.371094 L 270.917969 219.351562 L 323.910156 188.746094 L 324.628906 187.496094 L 326.050781 187.496094 L 325.328125 187.082031 L 325.328125 186.285156 L 325.351562 186.25 L 325.351562 167.910156 L 333.273438 172.484375 L 333.265625 172.496094 L 359.238281 187.496094 L 362.121094 187.496094 L 334.003906 171.257812 L 334.011719 171.246094 L 325.351562 166.242188 L 325.351562 125.414062 L 326.074219 124.996094 L 323.910156 124.996094 L 323.910156 187.082031 L 323.1875 187.496094 L 307.3125 196.667969 L 307.3125 187.5 C 307.3125 187.5 307.3125 187.5 307.3125 187.496094 L 305.871094 187.496094 C 305.871094 187.5 305.871094 187.5 305.871094 187.5 L 305.871094 197.5 L 270.523438 217.914062 L 269.867188 217.535156 L 269.847656 217.5 L 253.972656 208.332031 L 261.910156 203.746094 L 261.898438 203.730469 L 288.921875 188.121094 C 289.152344 187.988281 289.277344 187.746094 289.277344 187.5 L 287.121094 187.5 L 271.242188 196.667969 L 271.242188 187.5 L 269.800781 187.5 L 269.800781 197.5 L 261.144531 202.5 L 261.15625 202.515625 L 252.527344 207.496094 L 243.890625 202.507812 L 243.898438 202.496094 L 235.238281 197.496094 L 235.238281 187.496094 L 233.796875 187.496094 L 233.796875 218.75 C 233.796875 219.007812 233.933594 219.234375 234.140625 219.359375 L 234.136719 219.367188 L 234.136719 219.371094 L 287.160156 249.996094 L 290 249.996094 L 305.878906 240.828125 L 305.878906 249.996094 L 307.320312 249.996094 " fill-opacity="1" fill-rule="nonzero"/><path fill="#9e8954" d="M 324.628906 187.5 L 323.910156 188.746094 L 324.628906 188.332031 L 325.351562 188.746094 L 324.628906 187.5 " fill-opacity="1" fill-rule="nonzero"/><g clip-path="url(#7887f4cbe4)"><path fill="#9e8954" d="M 388.117188 202.5 L 362.144531 187.5 L 359.257812 187.5 L 387.394531 203.75 L 388.117188 202.5 " fill-opacity="1" fill-rule="nonzero"/></g><path fill="#9e8954" d="M 352.046875 234.996094 L 360.707031 229.996094 L 369.359375 234.996094 L 370.082031 233.746094 L 343.027344 218.121094 C 342.796875 217.988281 342.523438 218 342.308594 218.121094 L 343.386719 219.992188 L 359.265625 229.164062 L 351.324219 233.75 L 352.046875 234.996094 " fill-opacity="1" fill-rule="nonzero"/><g clip-path="url(#82f671e54b)"><path fill="#9e8954" d="M 334.011719 203.75 L 342.671875 198.75 L 378.015625 219.164062 L 378.015625 219.996094 L 379.097656 218.125 L 379.097656 218.121094 L 326.074219 187.496094 L 324.628906 187.496094 L 325.351562 188.746094 L 341.226562 197.914062 L 333.289062 202.5 L 334.011719 203.75 " fill-opacity="1" fill-rule="nonzero"/></g><g clip-path="url(#25a5e0aee1)"><path fill="#9e8954" d="M 379.464844 249.996094 L 379.464844 218.746094 C 379.464844 218.480469 379.316406 218.25 379.101562 218.125 L 378.023438 219.996094 L 378.023438 238.332031 L 370.082031 233.75 L 369.359375 235 L 378.023438 240 L 378.023438 249.996094 L 379.464844 249.996094 " fill-opacity="1" fill-rule="nonzero"/></g><g clip-path="url(#4a45fc68df)"><path fill="#9e8954" d="M 397.496094 249.996094 L 395.339844 249.996094 L 379.460938 259.164062 L 379.457031 249.996094 L 378.015625 249.996094 L 378.019531 260 L 369.363281 264.996094 L 370.085938 266.246094 L 397.136719 250.621094 C 397.371094 250.488281 397.496094 250.246094 397.496094 249.996094 " fill-opacity="1" fill-rule="nonzero"/></g><path fill="#9e8954" d="M 271.242188 312.496094 L 271.242188 281.246094 C 271.242188 280.996094 271.117188 280.785156 270.929688 280.652344 L 270.949219 280.625 L 270.949219 280.621094 L 217.925781 249.996094 L 216.480469 249.996094 L 217.203125 251.246094 L 233.078125 260.414062 L 225.140625 264.996094 C 225.140625 264.996094 225.140625 265 225.140625 265 L 225.863281 266.246094 L 234.519531 261.246094 L 269.867188 281.664062 L 269.867188 282.378906 L 269.800781 282.492188 L 269.800781 300.832031 L 261.914062 296.277344 L 261.933594 296.246094 L 234.878906 280.621094 C 234.648438 280.484375 234.371094 280.496094 234.15625 280.621094 L 235.238281 282.492188 L 251.113281 291.660156 L 243.175781 296.246094 L 243.898438 297.496094 L 252.554688 292.496094 L 261.160156 297.464844 L 261.144531 297.496094 L 269.800781 302.496094 L 269.800781 312.496094 L 271.242188 312.496094 " fill-opacity="1" fill-rule="nonzero"/><g clip-path="url(#8d0cb14de1)"><path fill="#9e8954" d="M 378.355469 281.871094 C 378.585938 282.007812 378.859375 281.996094 379.078125 281.871094 L 378 280 L 362.121094 270.828125 L 370.058594 266.246094 L 369.335938 264.996094 L 360.679688 269.996094 L 352.039062 265.007812 L 352.046875 264.996094 L 343.386719 259.996094 L 343.386719 249.996094 L 341.945312 249.996094 L 341.945312 281.246094 C 341.945312 281.507812 342.085938 281.734375 342.292969 281.859375 L 342.285156 281.867188 L 342.285156 281.871094 L 395.308594 312.496094 L 396.75 312.496094 L 396.03125 311.246094 L 380.152344 302.078125 L 388.089844 297.492188 C 388.09375 297.492188 388.09375 297.492188 388.09375 297.492188 L 387.371094 296.246094 L 378.710938 301.246094 L 343.363281 280.828125 L 343.363281 280.035156 L 343.386719 280 L 343.386719 261.660156 L 351.308594 266.234375 L 351.300781 266.246094 L 378.355469 281.871094 " fill-opacity="1" fill-rule="nonzero"/></g><path fill="#9e8954" d="M 305.875 279.996094 L 305.871094 279.996094 L 305.871094 312.496094 L 307.3125 312.496094 L 307.3125 282.492188 L 307.316406 282.496094 L 307.316406 249.996094 L 305.875 249.996094 L 305.875 279.996094 " fill-opacity="1" fill-rule="nonzero"/><path fill="#9e8954" d="M 290 249.996094 L 287.183594 249.996094 L 287.90625 250.414062 L 287.90625 251.132812 L 287.835938 251.246094 L 287.835938 269.582031 L 279.949219 265.027344 L 279.96875 264.996094 L 253.992188 249.996094 L 251.109375 249.996094 L 279.195312 266.21875 L 279.179688 266.246094 L 279.179688 266.25 L 287.835938 271.25 L 287.835938 312.078125 L 287.117188 312.496094 L 289.277344 312.496094 L 289.277344 250.414062 L 290 249.996094 " fill-opacity="1" fill-rule="nonzero"/><g clip-path="url(#875933dcec)"><path fill="#9e8954" d="M 351.324219 358.746094 L 324.269531 374.371094 C 324.039062 374.503906 323.914062 374.746094 323.910156 374.996094 L 326.070312 374.996094 L 341.949219 365.824219 L 341.949219 374.996094 L 343.390625 374.996094 L 343.390625 364.992188 L 352.046875 359.992188 L 351.324219 358.746094 " fill-opacity="1" fill-rule="nonzero"/></g><path fill="#9e8954" d="M 305.871094 344.996094 L 334.011719 328.746094 L 333.289062 327.496094 L 307.3125 342.496094 L 305.871094 344.996094 " fill-opacity="1" fill-rule="nonzero"/><g clip-path="url(#b908810cb8)"><path fill="#9e8954" d="M 343.386719 344.996094 L 342.308594 343.121094 L 342.304688 343.121094 L 289.277344 373.746094 L 288.578125 374.957031 L 288.921875 374.371094 L 289.28125 373.746094 L 288.5625 374.160156 L 287.902344 373.78125 L 287.878906 373.746094 L 272.007812 364.578125 L 279.941406 359.992188 L 279.933594 359.972656 L 305.875 344.992188 L 307.316406 342.492188 L 279.179688 358.746094 L 279.191406 358.761719 L 270.5625 363.742188 L 235.214844 343.328125 L 235.214844 342.535156 L 235.238281 342.496094 L 235.238281 324.160156 L 243.160156 328.734375 L 243.152344 328.746094 L 270.207031 344.371094 C 270.441406 344.503906 270.710938 344.492188 270.925781 344.371094 L 270.917969 344.351562 L 323.910156 313.746094 L 324.628906 312.496094 L 326.050781 312.496094 L 325.328125 312.078125 L 325.328125 311.285156 L 325.351562 311.246094 L 325.351562 292.910156 L 333.273438 297.484375 L 333.265625 297.492188 L 359.238281 312.496094 L 362.121094 312.496094 L 334.003906 296.253906 L 334.011719 296.246094 C 334.011719 296.242188 334.011719 296.242188 334.011719 296.242188 L 325.351562 291.242188 L 325.351562 250.414062 L 326.074219 249.996094 L 323.910156 249.996094 L 323.910156 312.078125 L 323.1875 312.496094 L 307.3125 321.664062 L 307.3125 312.496094 L 305.871094 312.496094 L 305.871094 322.496094 L 270.523438 342.914062 L 269.867188 342.535156 L 269.847656 342.5 L 253.972656 333.328125 L 261.910156 328.746094 L 261.898438 328.730469 L 288.921875 313.121094 C 289.152344 312.988281 289.277344 312.746094 289.277344 312.496094 L 287.121094 312.496094 L 271.242188 321.664062 L 271.242188 312.496094 L 269.800781 312.496094 L 269.800781 322.496094 L 261.144531 327.496094 L 261.15625 327.515625 L 252.527344 332.496094 L 243.890625 327.507812 L 243.898438 327.496094 L 235.238281 322.492188 L 235.238281 312.496094 L 233.796875 312.496094 L 233.796875 343.746094 C 233.796875 344.007812 233.933594 344.230469 234.140625 344.359375 L 234.136719 344.367188 L 234.136719 344.371094 L 287.160156 374.996094 L 290 374.996094 L 305.878906 365.824219 L 305.878906 374.996094 L 307.320312 374.996094 L 307.320312 364.992188 L 342.664062 344.578125 L 343.386719 344.996094 " fill-opacity="1" fill-rule="nonzero"/></g><path fill="#9e8954" d="M 324.628906 312.496094 L 323.910156 313.746094 L 324.628906 313.328125 L 325.351562 313.746094 L 324.628906 312.496094 " fill-opacity="1" fill-rule="nonzero"/><path fill="#9e8954" d="M 343.027344 343.117188 C 342.796875 342.984375 342.523438 342.996094 342.308594 343.121094 L 343.386719 344.992188 L 359.265625 354.160156 L 351.324219 358.746094 L 352.046875 359.996094 L 360.707031 354.992188 L 369.359375 359.992188 L 370.082031 358.746094 L 343.027344 343.117188 " fill-opacity="1" fill-rule="nonzero"/><g clip-path="url(#a1384adda4)"><path fill="#9e8954" d="M 362.144531 312.496094 L 359.257812 312.496094 L 387.394531 328.746094 L 388.117188 327.496094 L 362.144531 312.496094 " fill-opacity="1" fill-rule="nonzero"/></g><g clip-path="url(#7e5bb0c562)"><path fill="#9e8954" d="M 379.097656 343.121094 L 326.074219 312.496094 L 324.628906 312.496094 L 325.351562 313.746094 L 341.226562 322.914062 L 333.289062 327.496094 L 334.011719 328.746094 L 342.671875 323.746094 L 378.015625 344.160156 L 378.015625 344.996094 L 379.097656 343.121094 " fill-opacity="1" fill-rule="nonzero"/></g><g clip-path="url(#cc256d9eeb)"><path fill="#9e8954" d="M 379.101562 343.121094 L 378.023438 344.992188 L 378.023438 363.332031 L 370.082031 358.746094 L 369.359375 359.996094 L 378.023438 364.996094 L 378.023438 374.996094 L 379.464844 374.996094 L 379.464844 343.742188 C 379.464844 343.476562 379.316406 343.246094 379.101562 343.121094 " fill-opacity="1" fill-rule="nonzero"/></g></g></g></g></svg>