<svg xmlns="http://www.w3.org/2000/svg" xmlns:xlink="http://www.w3.org/1999/xlink" width="1920" zoomAndPan="magnify" viewBox="0 0 1440 1439.999935" height="1920" preserveAspectRatio="xMidYMid meet" version="1.0"><defs><filter x="0%" y="0%" width="100%" height="100%" id="568ac3f580"><feColorMatrix values="0 0 0 0 1 0 0 0 0 1 0 0 0 0 1 0 0 0 1 0" color-interpolation-filters="sRGB"/></filter><mask id="c2260a388a"><g filter="url(#568ac3f580)"><rect x="-144" width="1728" fill="#000000" y="-143.999994" height="1727.999922" fill-opacity="0.04"/></g></mask><clipPath id="b0ec3b7132"><path d="M 1196 108 L 1440 108 L 1440 819 L 1196 819 Z M 1196 108 " clip-rule="nonzero"/></clipPath><clipPath id="74b14344c8"><path d="M 1409 278 L 1440 278 L 1440 569 L 1409 569 Z M 1409 278 " clip-rule="nonzero"/></clipPath><clipPath id="e8ec3fde52"><path d="M 1016 730 L 1440 730 L 1440 1286 L 1016 1286 Z M 1016 730 " clip-rule="nonzero"/></clipPath><clipPath id="07391e22ac"><path d="M 1058 0 L 1440 0 L 1440 1028 L 1058 1028 Z M 1058 0 " clip-rule="nonzero"/></clipPath><clipPath id="3c8c95edce"><rect x="0" width="1440" y="0" height="1440"/></clipPath></defs><rect x="-144" width="1728" fill="#ffffff" y="-143.999994" height="1727.999922" fill-opacity="1"/><rect x="-144" width="1728" fill="#ebecf0" y="-143.999994" height="1727.999922" fill-opacity="1"/><g mask="url(#c2260a388a)"><g transform="matrix(1, 0, 0, 1, 0, -0.000000000000101068)"><g clip-path="url(#3c8c95edce)"><g clip-path="url(#b0ec3b7132)"><path fill="#603e20" d="M 1333.035156 358.351562 C 1358.84375 209.796875 1443.433594 120.402344 1398.433594 109.234375 C 1339.417969 94.589844 1144.878906 342.546875 1209.074219 562.558594 C 1254.929688 719.75 1370.292969 796.4375 1440.203125 818.816406 L 1440.203125 711.339844 C 1410.765625 674.554688 1366.042969 615.277344 1342.789062 542.945312 C 1315.695312 458.667969 1333.035156 358.351562 1333.035156 358.351562 " fill-opacity="1" fill-rule="nonzero"/></g><g clip-path="url(#74b14344c8)"><path fill="#603e20" d="M 1410.394531 434.574219 C 1414.171875 486.132812 1425.773438 531.425781 1440.203125 568.542969 L 1440.203125 278.300781 C 1419.671875 317.980469 1405.613281 369.203125 1410.394531 434.574219 " fill-opacity="1" fill-rule="nonzero"/></g><path fill="#603e20" d="M 733.085938 1161 C 712.472656 1176.429688 738.730469 1240.675781 744.675781 1311.429688 C 749.570312 1369.628906 738.238281 1440 738.238281 1440 L 816.804688 1440 C 817.679688 1296.164062 753.699219 1145.570312 733.085938 1161 " fill-opacity="1" fill-rule="nonzero"/><path fill="#603e20" d="M 54.921875 821.289062 C 76.210938 797.660156 40.652344 761.617188 13.410156 727.742188 C 9.550781 722.941406 5.066406 717.417969 0.203125 711.339844 L 0.203125 818.816406 C 28.148438 827.757812 48.847656 828.03125 54.921875 821.289062 " fill-opacity="1" fill-rule="nonzero"/><g clip-path="url(#e8ec3fde52)"><path fill="#603e20" d="M 1164.566406 956.566406 C 1095.574219 881.882812 1056.382812 732.855469 1033.199219 730.289062 C 1010.011719 727.714844 999.234375 863.65625 1074.414062 1004.144531 C 1185.179688 1211.144531 1359.058594 1274.15625 1440.203125 1285.714844 L 1440.203125 1090.285156 C 1440.203125 1090.285156 1286.933594 1089 1164.566406 956.566406 " fill-opacity="1" fill-rule="nonzero"/></g><path fill="#603e20" d="M 81.390625 676.289062 C 98.464844 663.429688 70.007812 579.855469 67.164062 506.574219 C 64.3125 433.289062 69.351562 355.597656 110.492188 282.816406 C 144.640625 222.386719 205.550781 180.296875 273.949219 119.355469 C 339.460938 60.976562 347.894531 0 347.894531 0 L 205.484375 0 C 196.433594 59.996094 183.136719 95.996094 89.925781 173.570312 C 69.207031 190.820312 28.53125 223.550781 0.203125 278.300781 L 0.203125 568.542969 C 29.3125 643.425781 69.976562 684.882812 81.390625 676.289062 " fill-opacity="1" fill-rule="nonzero"/><path fill="#603e20" d="M 403.421875 991.359375 C 334.984375 949.550781 306.183594 895.355469 326.140625 864.074219 C 346.042969 832.871094 389.535156 842.003906 426.609375 863.425781 C 463.3125 884.640625 507.839844 935.105469 536.082031 979.785156 C 608.214844 1093.898438 618.515625 1226.644531 618.515625 1226.644531 C 585.027344 1114.785156 489.714844 1044.074219 403.421875 991.359375 Z M 658.382812 1112.144531 C 592.730469 923.136719 471.617188 777.859375 362.140625 777.859375 C 252.65625 777.859375 223.035156 885.859375 295.164062 987.433594 C 365.832031 1086.941406 484.5 1114.714844 538.597656 1209.855469 C 583.519531 1288.871094 589.039062 1378.007812 556.632812 1440 L 688.007812 1440 C 688.007812 1440 727.828125 1312.074219 658.382812 1112.144531 " fill-opacity="1" fill-rule="nonzero"/><path fill="#603e20" d="M 166.363281 963.003906 C 246.21875 875.574219 219.167969 716.144531 210.152344 601.714844 C 201.136719 487.292969 199.800781 363.816406 260.386719 298.296875 C 337.667969 214.726562 463.894531 210.871094 566.929688 154.285156 C 669.96875 97.714844 688.007812 0 688.007812 0 L 556.632812 0 C 525.125 57.765625 448.433594 52.714844 344.105469 113.15625 C 245.308594 170.375 177.953125 272.582031 158.632812 380.582031 C 139.3125 488.574219 177.566406 690.789062 141.890625 780.4375 C 101.441406 882.082031 0.371094 882.007812 0.203125 882.007812 L 0.203125 1027.289062 C 0.371094 1027.304688 99.464844 1036.246094 166.363281 963.003906 " fill-opacity="1" fill-rule="nonzero"/><path fill="#603e20" d="M 668.6875 151.714844 C 622.519531 194.246094 565.15625 204.46875 557.617188 231.417969 C 551.316406 253.933594 588.171875 284.203125 616.519531 325.285156 C 631.5 346.976562 682.855469 404.359375 697.667969 539.355469 C 709.136719 643.890625 711.714844 825.484375 757.871094 886.394531 C 768.664062 900.636719 785.4375 912.082031 798.054688 906.800781 C 821.289062 897.074219 774.953125 801.644531 757.5625 718.714844 C 740.171875 635.789062 732.441406 504.648438 744.035156 365.789062 C 755.625 226.933594 816.214844 156.96875 816.804688 0 L 738.238281 0 C 738.238281 0 730.585938 94.6875 668.6875 151.714844 " fill-opacity="1" fill-rule="nonzero"/><path fill="#603e20" d="M 1080.191406 67.082031 C 1063.152344 70.714844 1069.226562 160.847656 1033.351562 278.90625 C 1007.550781 363.824219 981.269531 435.589844 963.757812 483.695312 C 935.769531 560.585938 912.40625 639.050781 913.921875 739.144531 C 915.351562 833.632812 943.425781 911.015625 952.484375 929.449219 C 961.546875 947.886719 1010.054688 1049.832031 1032.644531 1040.433594 C 1055.242188 1031.019531 968.984375 892.363281 984.113281 694.664062 C 1003.03125 447.570312 1080.648438 302.222656 1101.621094 203.675781 C 1122.59375 105.132812 1095.375 63.851562 1080.191406 67.082031 " fill-opacity="1" fill-rule="nonzero"/><g clip-path="url(#07391e22ac)"><path fill="#603e20" d="M 1122.355469 265.917969 C 1053.945312 423.667969 1028.992188 629.101562 1106.609375 780.433594 C 1189.035156 941.140625 1324.109375 1025.515625 1440.191406 1027.289062 L 1440.203125 1027.289062 L 1440.203125 882.007812 L 1440.191406 882.007812 C 1440.027344 882.015625 1383.714844 884.71875 1331.25 856.222656 C 1258.695312 816.800781 1185.707031 732.335938 1150.917969 605.839844 C 1089.566406 382.722656 1282.265625 178.703125 1285.648438 0 L 1199.34375 0 C 1199.34375 0 1203.785156 78.160156 1122.355469 265.917969 " fill-opacity="1" fill-rule="nonzero"/></g><path fill="#603e20" d="M 1132.371094 1197 C 978.378906 1048.21875 899.039062 931.84375 878.460938 828.941406 C 852.511719 699.207031 868.082031 553.910156 964.085938 335.960938 C 1004.203125 244.878906 1031.695312 168.441406 1045.292969 108.738281 C 1050.152344 87.394531 1053.71875 69.890625 1056.046875 53.148438 C 1060.3125 22.546875 1060.886719 0 1060.886719 0 L 993.269531 0 C 984.863281 258.152344 862.914062 426.804688 862.914062 426.804688 C 931.679688 227.023438 929.507812 0 929.507812 0 L 861.890625 0 C 865.511719 268.53125 766.917969 491.667969 801.355469 743.144531 C 832.246094 968.710938 951.335938 1076.820312 1069.261719 1199.570312 C 1140.652344 1273.898438 1173.9375 1321.972656 1188.542969 1364.109375 C 1202.378906 1404.039062 1199.34375 1440 1199.34375 1440 L 1285.648438 1440 C 1287.402344 1322.300781 1183.574219 1246.476562 1132.371094 1197 " fill-opacity="1" fill-rule="nonzero"/><path fill="#603e20" d="M 363.429688 506.574219 C 284.105469 375.6875 363.429688 304.074219 427.1875 325.285156 C 490.941406 346.503906 554.699219 456.433594 577.882812 541.289062 C 601.070312 626.144531 626.183594 801.644531 626.183594 801.644531 C 543.109375 655.074219 426.539062 610.714844 363.429688 506.574219 Z M 946.898438 1208.570312 C 809.074219 1066.476562 738.238281 967.5 697.667969 815.144531 C 657.097656 662.789062 674.480469 496.933594 606.863281 375.429688 C 539.246094 253.933594 369.226562 223.074219 288.078125 304.074219 C 206.933594 385.074219 223.5625 549.652344 359.566406 674.355469 C 525.71875 826.714844 875.410156 1050.429688 861.890625 1440 L 929.507812 1440 C 929.730469 1310.914062 886.273438 1220.109375 886.273438 1220.109375 C 1001.535156 1305.144531 993.269531 1440 993.269531 1440 L 1060.886719 1440 C 1060.886719 1440 1067.242188 1332.648438 946.898438 1208.570312 " fill-opacity="1" fill-rule="nonzero"/><path fill="#603e20" d="M 320 1232.433594 C 288.867188 1172.109375 240.882812 1136.035156 194.488281 1119.566406 C 144.214844 1101.734375 89.566406 1096.21875 0.203125 1090.285156 L 0.203125 1285.714844 C 0.203125 1285.714844 73 1294.445312 102.0625 1302.488281 C 124.917969 1308.816406 163.277344 1314 189.625 1351.132812 C 211.03125 1381.300781 205.484375 1440 205.484375 1440 L 347.894531 1440 C 347.894531 1440 364.308594 1318.277344 320 1232.433594 " fill-opacity="1" fill-rule="nonzero"/></g></g></g></svg>