<svg xmlns="http://www.w3.org/2000/svg" xmlns:xlink="http://www.w3.org/1999/xlink" width="1920" zoomAndPan="magnify" viewBox="0 0 1440 809.999993" height="1080" preserveAspectRatio="xMidYMid meet" version="1.0"><defs><g/></defs><g fill="#ffffff" fill-opacity="1"><g transform="translate(102.722396, 518.89103)"><g><path d="M 268.875 -481.578125 C 289.789062 -476.347656 306.679688 -463.957031 319.546875 -444.40625 C 333.554688 -422.34375 341.867188 -399.804688 344.484375 -376.796875 C 345.109375 -369.578125 341.757812 -366.125 334.4375 -366.4375 C 327.332031 -366.644531 322.472656 -370.515625 319.859375 -378.046875 C 318.703125 -381.816406 317.707031 -385.53125 316.875 -389.1875 C 316.351562 -391.695312 315.773438 -394.207031 315.140625 -396.71875 C 310.753906 -412.40625 303.488281 -427.253906 293.34375 -441.265625 C 280.269531 -459.460938 264.0625 -469.03125 244.71875 -469.96875 C 231.125 -470.1875 218.675781 -467.734375 207.375 -462.609375 C 177.257812 -449.742188 151.164062 -430.367188 129.09375 -404.484375 C 107.03125 -378.597656 88.726562 -348.398438 74.1875 -313.890625 C 59.65625 -279.378906 48.726562 -242.800781 41.40625 -204.15625 C 34.09375 -165.519531 29.910156 -127.035156 28.859375 -88.703125 C 27.816406 -50.378906 29.703125 -14.378906 34.515625 19.296875 C 39.328125 52.972656 46.671875 82.019531 56.546875 106.4375 C 66.429688 130.851562 78.171875 149.597656 91.765625 162.671875 C 105.359375 175.742188 121.929688 180.054688 141.484375 175.609375 C 161.046875 171.171875 185.15625 146.570312 213.8125 101.8125 C 242.46875 57.050781 267.828125 -22.0625 289.890625 -135.53125 C 291.046875 -139.613281 290.863281 -142.410156 289.34375 -143.921875 C 287.820312 -145.441406 284.660156 -146.203125 279.859375 -146.203125 C 279.640625 -146.203125 279.320312 -146.203125 278.90625 -146.203125 C 277.96875 -146.203125 277.03125 -146.097656 276.09375 -145.890625 C 267.613281 -145.367188 258.984375 -144.789062 250.203125 -144.15625 C 227.398438 -142.488281 204.601562 -140.867188 181.8125 -139.296875 C 175.425781 -139.085938 168.992188 -139.085938 162.515625 -139.296875 C 162.304688 -139.296875 162.203125 -139.296875 162.203125 -139.296875 C 160.628906 -139.503906 159.1875 -140.078125 157.875 -141.015625 C 156.570312 -141.960938 155.609375 -143.113281 154.984375 -144.46875 C 154.253906 -145.832031 154.070312 -147.140625 154.4375 -148.390625 C 154.800781 -149.648438 155.664062 -150.539062 157.03125 -151.0625 C 158.175781 -151.269531 159.320312 -151.582031 160.46875 -152 C 164.65625 -153.675781 168.894531 -154.722656 173.1875 -155.140625 C 195.5625 -157.648438 214.800781 -159.375 230.90625 -160.3125 C 247.007812 -161.257812 268.578125 -163.847656 295.609375 -168.078125 C 322.648438 -172.316406 335.59375 -160.34375 334.4375 -132.15625 C 333.289062 -103.976562 334.078125 -73.363281 336.796875 -40.3125 C 338.679688 -22.113281 340.664062 -3.914062 342.75 14.28125 C 345.050781 32.6875 347.664062 51.195312 350.59375 69.8125 C 351.75 77.4375 353.003906 85.171875 354.359375 93.015625 C 354.671875 94.796875 355.039062 96.523438 355.46875 98.203125 C 355.675781 99.972656 356.039062 101.695312 356.5625 103.375 C 357.707031 109.332031 355.613281 112.414062 350.28125 112.625 C 343.175781 113.363281 338.210938 110.851562 335.390625 105.09375 C 333.816406 101.644531 332.457031 98.039062 331.3125 94.28125 C 331.09375 93.863281 330.878906 93.285156 330.671875 92.546875 C 321.472656 66.085938 315.828125 39.894531 313.734375 13.96875 C 312.054688 -3.289062 310.4375 -20.65625 308.875 -38.125 C 307.9375 -46.695312 306.992188 -55.21875 306.046875 -63.6875 C 303.535156 -61.59375 301.753906 -59.238281 300.703125 -56.625 C 299.660156 -54.007812 299.035156 -51.289062 298.828125 -48.46875 C 298.617188 -47.113281 298.304688 -45.753906 297.890625 -44.390625 C 278.960938 14.273438 257.707031 64.550781 234.125 106.4375 C 210.539062 148.320312 185.46875 175.929688 158.90625 189.265625 C 132.34375 202.597656 109.332031 204.085938 89.875 193.734375 C 70.425781 183.378906 53.75 164.445312 39.84375 136.9375 C 25.9375 109.4375 15.296875 76.414062 7.921875 37.875 C 0.546875 -0.65625 -3.191406 -41.929688 -3.296875 -85.953125 C -3.398438 -129.984375 0.625 -173.800781 8.78125 -217.40625 C 16.9375 -261.019531 29.691406 -301.570312 47.046875 -339.0625 C 64.410156 -376.5625 86.789062 -408.09375 114.1875 -433.65625 C 141.59375 -459.226562 174.382812 -475.9375 212.5625 -483.78125 C 230.332031 -487.226562 249.101562 -486.492188 268.875 -481.578125 Z M 268.875 -481.578125 "/></g></g></g><g fill="#ffffff" fill-opacity="1"><g transform="translate(462.093506, 518.89103)"><g><path d="M 162.203125 -78.90625 C 164.503906 -78.695312 164.109375 -75.53125 161.015625 -69.40625 C 157.929688 -63.289062 152.859375 -56.257812 145.796875 -48.3125 C 138.742188 -40.363281 130.847656 -33.515625 122.109375 -27.765625 C 113.378906 -22.015625 104.675781 -19.398438 96 -19.921875 C 89.519531 -20.546875 84.734375 -22.476562 81.640625 -25.71875 C 78.554688 -28.96875 76.441406 -32.550781 75.296875 -36.46875 C 74.148438 -40.394531 73.414062 -43.820312 73.09375 -46.75 C 72.882812 -48.84375 72.625 -50.410156 72.3125 -51.453125 C 72 -52.492188 71.375 -52.546875 70.4375 -51.609375 C 63.738281 -36.234375 52.128906 -28.546875 35.609375 -28.546875 C 26.398438 -28.546875 18.921875 -32.625 13.171875 -40.78125 C 7.421875 -48.9375 3.785156 -59.160156 2.265625 -71.453125 C 0.753906 -83.742188 1.929688 -96.210938 5.796875 -108.859375 C 6.742188 -113.046875 9.304688 -115.925781 13.484375 -117.5 C 16.421875 -118.644531 19.457031 -118.535156 22.59375 -117.171875 C 25.726562 -115.816406 27.398438 -113.78125 27.609375 -111.0625 C 27.609375 -108.238281 27.398438 -105.46875 26.984375 -102.75 C 26.460938 -100.65625 26.097656 -98.664062 25.890625 -96.78125 C 25.460938 -89.257812 25.585938 -81 26.265625 -72 C 26.953125 -63.007812 29.332031 -55.320312 33.40625 -48.9375 C 37.382812 -43.8125 41.78125 -43.15625 46.59375 -46.96875 C 51.40625 -50.789062 55.640625 -56.726562 59.296875 -64.78125 C 62.117188 -71.164062 64.335938 -77.519531 65.953125 -83.84375 C 67.578125 -90.175781 68.597656 -95.066406 69.015625 -98.515625 C 69.441406 -99.972656 69.65625 -100.914062 69.65625 -101.34375 C 70.382812 -104.0625 71.113281 -106.726562 71.84375 -109.34375 C 73 -113.207031 74.148438 -116.96875 75.296875 -120.625 C 77.285156 -127.738281 82.304688 -130.722656 90.359375 -129.578125 C 95.273438 -129.160156 97.941406 -126.753906 98.359375 -122.359375 C 98.773438 -116.398438 98.878906 -110.4375 98.671875 -104.46875 C 98.460938 -98.195312 98.148438 -92.082031 97.734375 -86.125 C 97.203125 -77.4375 96.832031 -68.804688 96.625 -60.234375 C 96.414062 -47.785156 98.898438 -40.539062 104.078125 -38.5 C 109.253906 -36.46875 115.582031 -37.800781 123.0625 -42.5 C 130.539062 -47.207031 137.726562 -53.59375 144.625 -61.65625 C 145.257812 -62.382812 146.046875 -63.320312 146.984375 -64.46875 C 148.347656 -66.25 150.019531 -68.238281 152 -70.4375 C 153.988281 -72.632812 155.894531 -74.539062 157.71875 -76.15625 C 159.550781 -77.78125 161.046875 -78.695312 162.203125 -78.90625 Z M 162.203125 -78.90625 "/></g></g></g><g fill="#ffffff" fill-opacity="1"><g transform="translate(615.034069, 518.89103)"><g><path d="M 81.40625 -63.6875 C 78.164062 -57 72.648438 -49.570312 64.859375 -41.40625 C 57.066406 -33.25 48.226562 -28.070312 38.34375 -25.875 C 28.46875 -23.6875 19.035156 -27.085938 10.046875 -36.078125 C 6.585938 -40.054688 4.046875 -44.632812 2.421875 -49.8125 C 0.804688 -54.988281 0.207031 -60.082031 0.625 -65.09375 C 0.625 -66.457031 0.625 -68.1875 0.625 -70.28125 C 0.625 -75.613281 0.859375 -81.78125 1.328125 -88.78125 C 1.804688 -95.789062 2.851562 -102.117188 4.46875 -107.765625 C 6.09375 -113.410156 8.628906 -116.8125 12.078125 -117.96875 C 22.015625 -120.476562 27.398438 -117.023438 28.234375 -107.609375 C 28.234375 -104.578125 28.128906 -101.546875 27.921875 -98.515625 C 27.710938 -96.941406 27.609375 -95.476562 27.609375 -94.125 C 27.398438 -89.726562 27.191406 -85.332031 26.984375 -80.9375 C 26.984375 -77.488281 26.828125 -74.039062 26.515625 -70.59375 C 26.304688 -55.425781 29.703125 -46.40625 36.703125 -43.53125 C 43.710938 -40.65625 51.710938 -43.710938 60.703125 -52.703125 C 69.703125 -61.703125 75.585938 -69.179688 78.359375 -75.140625 C 81.128906 -81.097656 83.140625 -82.351562 84.390625 -78.90625 C 85.648438 -75.457031 84.65625 -70.382812 81.40625 -63.6875 Z M 26.203125 -150.28125 C 24.835938 -149.125 23.1875 -148.390625 21.25 -148.078125 C 19.320312 -147.765625 17.625 -147.921875 16.15625 -148.546875 C 15.007812 -149.492188 14.273438 -150.722656 13.953125 -152.234375 C 13.640625 -153.753906 13.484375 -155.5625 13.484375 -157.65625 C 13.484375 -158.070312 13.585938 -158.488281 13.796875 -158.90625 C 14.015625 -160.789062 14.488281 -162.671875 15.21875 -164.546875 C 17.3125 -169.566406 21.648438 -171.867188 28.234375 -171.453125 C 30.535156 -171.140625 32.335938 -170.195312 33.640625 -168.625 C 34.953125 -167.0625 35.242188 -165.234375 34.515625 -163.140625 C 32.941406 -158.015625 30.171875 -153.726562 26.203125 -150.28125 Z M 26.203125 -150.28125 "/></g></g></g><g fill="#ffffff" fill-opacity="1"><g transform="translate(692.053368, 518.89103)"><g><path d="M 17.5625 -155.453125 C 13.695312 -155.035156 10.925781 -156.34375 9.25 -159.375 C 7.6875 -162.507812 8.160156 -165.226562 10.671875 -167.53125 C 13.492188 -169.832031 16.785156 -171.113281 20.546875 -171.375 C 24.316406 -171.632812 27.71875 -170.722656 30.75 -168.640625 C 31.375 -168.210938 31.84375 -167.632812 32.15625 -166.90625 C 32.15625 -166.488281 32.257812 -166.019531 32.46875 -165.5 C 32.257812 -165.289062 32.15625 -164.972656 32.15625 -164.546875 C 31.84375 -163.816406 31.476562 -163.085938 31.0625 -162.359375 C 27.394531 -158.484375 22.894531 -156.179688 17.5625 -155.453125 Z M 119.0625 -78.28125 C 120.632812 -77.539062 121.207031 -76.488281 120.78125 -75.125 C 120.363281 -73.769531 119.582031 -72.625 118.4375 -71.6875 C 114.988281 -68.65625 111.640625 -65.78125 108.390625 -63.0625 C 96.890625 -53.332031 85.675781 -43.65625 74.75 -34.03125 C 63.820312 -24.414062 52.707031 -13.859375 41.40625 -2.359375 C 33.78125 5.066406 28.367188 10.894531 25.171875 15.125 C 21.984375 19.363281 19.972656 24.070312 19.140625 29.25 C 18.304688 34.425781 17.78125 42.191406 17.5625 52.546875 C 16.625 95.316406 12.285156 137.878906 4.546875 180.234375 C 1.929688 194.566406 -2.25 208.476562 -8 221.96875 C -10.925781 229.601562 -15.265625 236.398438 -21.015625 242.359375 C -26.554688 248.109375 -33.460938 251.085938 -41.734375 251.296875 C -52.296875 251.828125 -59.875 247.800781 -64.46875 239.21875 C -68.863281 230.957031 -71.425781 222.332031 -72.15625 213.34375 C -73.519531 198.175781 -73.234375 183.113281 -71.296875 168.15625 C -69.359375 153.207031 -66.300781 138.359375 -62.125 123.609375 C -52.707031 90.566406 -36.597656 60.34375 -13.796875 32.9375 C -6.691406 23.945312 -3.242188 14.066406 -3.453125 3.296875 C -2.515625 -24.316406 -1.46875 -51.820312 -0.3125 -79.21875 C 0.101562 -88 0.414062 -96.734375 0.625 -105.421875 C 0.9375 -109.179688 1.300781 -112.785156 1.71875 -116.234375 C 2.875 -120.835938 6.328125 -122.984375 12.078125 -122.671875 C 16.890625 -122.671875 19.867188 -120.734375 21.015625 -116.859375 C 22.378906 -110.691406 23.140625 -104.441406 23.296875 -98.109375 C 23.453125 -91.785156 23.269531 -85.382812 22.75 -78.90625 C 22.539062 -73.15625 22.222656 -67.507812 21.796875 -61.96875 C 20.859375 -47.945312 20.390625 -32.519531 20.390625 -15.6875 C 20.390625 -15.0625 20.675781 -14.40625 21.25 -13.71875 C 21.832031 -13.039062 22.460938 -12.570312 23.140625 -12.3125 C 23.816406 -12.050781 24.625 -12.285156 25.5625 -13.015625 C 27.132812 -14.378906 28.757812 -15.738281 30.4375 -17.09375 C 33.15625 -19.394531 35.875 -21.800781 38.59375 -24.3125 C 43.1875 -28.5 51.128906 -34.957031 62.421875 -43.6875 C 73.722656 -52.414062 84.941406 -60.414062 96.078125 -67.6875 C 107.210938 -74.957031 114.875 -78.488281 119.0625 -78.28125 Z M -21.015625 192.3125 C -15.992188 170.039062 -12.203125 145.546875 -9.640625 118.828125 C -7.078125 92.109375 -5.222656 67.140625 -4.078125 43.921875 C -11.921875 51.765625 -18.847656 62.820312 -24.859375 77.09375 C -30.878906 91.375 -35.820312 106.800781 -39.6875 123.375 C -43.550781 139.945312 -46.425781 155.472656 -48.3125 169.953125 C -50.195312 184.441406 -51.140625 195.710938 -51.140625 203.765625 C -50.828125 221.023438 -48.835938 230.859375 -45.171875 233.265625 C -41.515625 235.671875 -37.382812 232.898438 -32.78125 224.953125 C -28.1875 217.003906 -24.265625 206.125 -21.015625 192.3125 Z M -21.015625 192.3125 "/></g></g></g><g fill="#ffffff" fill-opacity="1"><g transform="translate(799.033372, 518.89103)"><g><path d="M 177.5 -80.625 C 174.625 -71.84375 168.921875 -61.773438 160.390625 -50.421875 C 151.867188 -39.078125 141.226562 -31.785156 128.46875 -28.546875 C 115.71875 -25.304688 104.6875 -25.75 95.375 -29.875 C 86.070312 -34.007812 80.945312 -45.070312 80 -63.0625 C 69.4375 -42.5625 59.367188 -29.4375 49.796875 -23.6875 C 40.234375 -17.9375 30.273438 -15.738281 19.921875 -17.09375 C 8.210938 -18.976562 0.289062 -23.523438 -3.84375 -30.734375 C -7.976562 -37.953125 -9.363281 -46.296875 -8 -55.765625 C -6.644531 -65.234375 -3.769531 -74.304688 0.625 -82.984375 C 4.070312 -89.460938 8.851562 -95.472656 14.96875 -101.015625 C 21.09375 -106.566406 27.503906 -110.910156 34.203125 -114.046875 C 42.460938 -118.222656 50.773438 -120.207031 59.140625 -120 C 67.503906 -119.789062 76.445312 -117.019531 85.96875 -111.6875 C 86.175781 -111.476562 86.28125 -111.6875 86.28125 -112.3125 C 86.28125 -113.257812 86.515625 -114.4375 86.984375 -115.84375 C 87.453125 -117.257812 88.265625 -118.382812 89.421875 -119.21875 C 92.554688 -121.519531 96.265625 -122.671875 100.546875 -122.671875 C 104.835938 -122.671875 108.132812 -120.523438 110.4375 -116.234375 C 110.851562 -110.691406 110.273438 -103.632812 108.703125 -95.0625 C 105.253906 -76.238281 105.253906 -62.695312 108.703125 -54.4375 C 112.160156 -46.175781 118.253906 -42.332031 126.984375 -42.90625 C 135.710938 -43.476562 147.03125 -52.101562 160.9375 -68.78125 C 174.851562 -85.46875 180.375 -89.414062 177.5 -80.625 Z M 23.0625 -36.390625 C 27.875 -32.941406 33.390625 -33.410156 39.609375 -37.796875 C 45.828125 -42.191406 51.8125 -48.414062 57.5625 -56.46875 C 63.320312 -64.519531 68.160156 -72.570312 72.078125 -80.625 C 76.003906 -88.675781 78.175781 -94.640625 78.59375 -98.515625 C 66.875 -104.785156 56.832031 -105.851562 48.46875 -101.71875 C 40.101562 -97.59375 33.4375 -90.847656 28.46875 -81.484375 C 23.5 -72.128906 20.546875 -63.03125 19.609375 -54.1875 C 18.671875 -45.351562 19.820312 -39.421875 23.0625 -36.390625 Z M 23.0625 -36.390625 "/></g></g></g><g fill="#ffffff" fill-opacity="1"><g transform="translate(965.307216, 518.89103)"><g><path d="M 192.15625 -57.890625 C 192.15625 -57.890625 192.15625 -57.992188 192.15625 -58.203125 C 193.101562 -59.140625 195.351562 -61.203125 198.90625 -64.390625 C 202.457031 -67.578125 206.191406 -70.609375 210.109375 -73.484375 C 214.035156 -76.367188 216.863281 -77.890625 218.59375 -78.046875 C 220.320312 -78.203125 219.929688 -75.613281 217.421875 -70.28125 C 217.003906 -69.539062 216.375 -68.675781 215.53125 -67.6875 C 214.695312 -66.695312 213.96875 -65.726562 213.34375 -64.78125 C 213.03125 -64.570312 212.769531 -64.3125 212.5625 -64 C 196.457031 -46.75 183.851562 -34.800781 174.75 -28.15625 C 165.65625 -21.519531 156.660156 -18.410156 147.765625 -18.828125 C 138.566406 -19.765625 132.34375 -23.34375 129.09375 -29.5625 C 125.851562 -35.789062 124.285156 -43.375 124.390625 -52.3125 C 124.492188 -61.257812 125.226562 -70.332031 126.59375 -79.53125 C 128.050781 -89.050781 128.648438 -97.179688 128.390625 -103.921875 C 128.128906 -110.671875 125.804688 -114.617188 121.421875 -115.765625 C 117.335938 -116.078125 113.148438 -112.703125 108.859375 -105.640625 C 104.578125 -98.585938 100.5 -90.40625 96.625 -81.09375 C 92.757812 -71.789062 89.519531 -63.582031 86.90625 -56.46875 C 85.539062 -52.601562 84.546875 -49.832031 83.921875 -48.15625 C 82.035156 -44.5 79.367188 -42.09375 75.921875 -40.9375 C 72.472656 -39.789062 68.8125 -40 64.9375 -41.5625 C 62.644531 -43.03125 61.234375 -45.019531 60.703125 -47.53125 C 60.078125 -53.070312 59.867188 -58.820312 60.078125 -64.78125 C 60.285156 -68.65625 60.285156 -72.421875 60.078125 -76.078125 C 60.078125 -77.023438 60.078125 -78.175781 60.078125 -79.53125 C 60.078125 -81.414062 60.078125 -83.269531 60.078125 -85.09375 C 60.078125 -86.925781 59.894531 -88.546875 59.53125 -89.953125 C 59.164062 -91.367188 58.40625 -92.078125 57.25 -92.078125 C 55.476562 -92.285156 53.3125 -90.140625 50.75 -85.640625 C 48.1875 -81.148438 45.597656 -75.789062 42.984375 -69.5625 C 40.367188 -63.34375 38.015625 -57.722656 35.921875 -52.703125 C 34.035156 -48.316406 32.78125 -45.335938 32.15625 -43.765625 C 31.84375 -43.035156 31.476562 -42.300781 31.0625 -41.5625 C 28.96875 -37.488281 26.875 -33.359375 24.78125 -29.171875 C 23.007812 -25.722656 20.03125 -23.6875 15.84375 -23.0625 C 7.375 -21.59375 2.773438 -25.039062 2.046875 -33.40625 C 1.410156 -54.738281 0.832031 -76.128906 0.3125 -97.578125 C 0.3125 -103.117188 3.757812 -105.078125 10.65625 -103.453125 C 17.5625 -101.828125 21.382812 -98.242188 22.125 -92.703125 C 22.75 -83.710938 23.765625 -79.164062 25.171875 -79.0625 C 26.585938 -78.957031 29.492188 -82.929688 33.890625 -90.984375 C 36.179688 -94.847656 38.582031 -98.769531 41.09375 -102.75 C 44.019531 -107.976562 48.046875 -112.578125 53.171875 -116.546875 C 58.398438 -120.003906 63.445312 -121.023438 68.3125 -119.609375 C 73.175781 -118.203125 76.96875 -114.515625 79.6875 -108.546875 C 80.84375 -106.035156 81.992188 -104.675781 83.140625 -104.46875 C 84.285156 -104.257812 85.429688 -104.78125 86.578125 -106.03125 C 87.734375 -107.289062 88.890625 -108.8125 90.046875 -110.59375 C 90.984375 -112.476562 92.023438 -114.097656 93.171875 -115.453125 C 99.660156 -122.566406 107.375 -127.507812 116.3125 -130.28125 C 125.257812 -133.050781 133.363281 -132.945312 140.625 -129.96875 C 147.894531 -126.988281 152.109375 -120.425781 153.265625 -110.28125 C 153.679688 -98.144531 152.84375 -85.75 150.75 -73.09375 C 149.914062 -67.03125 149.234375 -61.28125 148.703125 -55.84375 C 148.285156 -44.03125 150.429688 -37.546875 155.140625 -36.390625 C 159.847656 -35.242188 165.597656 -37.097656 172.390625 -41.953125 C 179.191406 -46.816406 185.78125 -52.128906 192.15625 -57.890625 Z M 192.15625 -57.890625 "/></g></g></g><g fill="#ffffff" fill-opacity="1"><g transform="translate(1170.953491, 518.89103)"><g><path d="M 177.5 -80.625 C 174.625 -71.84375 168.921875 -61.773438 160.390625 -50.421875 C 151.867188 -39.078125 141.226562 -31.785156 128.46875 -28.546875 C 115.71875 -25.304688 104.6875 -25.75 95.375 -29.875 C 86.070312 -34.007812 80.945312 -45.070312 80 -63.0625 C 69.4375 -42.5625 59.367188 -29.4375 49.796875 -23.6875 C 40.234375 -17.9375 30.273438 -15.738281 19.921875 -17.09375 C 8.210938 -18.976562 0.289062 -23.523438 -3.84375 -30.734375 C -7.976562 -37.953125 -9.363281 -46.296875 -8 -55.765625 C -6.644531 -65.234375 -3.769531 -74.304688 0.625 -82.984375 C 4.070312 -89.460938 8.851562 -95.472656 14.96875 -101.015625 C 21.09375 -106.566406 27.503906 -110.910156 34.203125 -114.046875 C 42.460938 -118.222656 50.773438 -120.207031 59.140625 -120 C 67.503906 -119.789062 76.445312 -117.019531 85.96875 -111.6875 C 86.175781 -111.476562 86.28125 -111.6875 86.28125 -112.3125 C 86.28125 -113.257812 86.515625 -114.4375 86.984375 -115.84375 C 87.453125 -117.257812 88.265625 -118.382812 89.421875 -119.21875 C 92.554688 -121.519531 96.265625 -122.671875 100.546875 -122.671875 C 104.835938 -122.671875 108.132812 -120.523438 110.4375 -116.234375 C 110.851562 -110.691406 110.273438 -103.632812 108.703125 -95.0625 C 105.253906 -76.238281 105.253906 -62.695312 108.703125 -54.4375 C 112.160156 -46.175781 118.253906 -42.332031 126.984375 -42.90625 C 135.710938 -43.476562 147.03125 -52.101562 160.9375 -68.78125 C 174.851562 -85.46875 180.375 -89.414062 177.5 -80.625 Z M 23.0625 -36.390625 C 27.875 -32.941406 33.390625 -33.410156 39.609375 -37.796875 C 45.828125 -42.191406 51.8125 -48.414062 57.5625 -56.46875 C 63.320312 -64.519531 68.160156 -72.570312 72.078125 -80.625 C 76.003906 -88.675781 78.175781 -94.640625 78.59375 -98.515625 C 66.875 -104.785156 56.832031 -105.851562 48.46875 -101.71875 C 40.101562 -97.59375 33.4375 -90.847656 28.46875 -81.484375 C 23.5 -72.128906 20.546875 -63.03125 19.609375 -54.1875 C 18.671875 -45.351562 19.820312 -39.421875 23.0625 -36.390625 Z M 23.0625 -36.390625 "/></g></g></g></svg>